<?xml version="1.0" encoding="UTF-8" standalone="no"?>
<svg
   xmlns:dc="http://purl.org/dc/elements/1.1/"
   xmlns:cc="http://creativecommons.org/ns#"
   xmlns:rdf="http://www.w3.org/1999/02/22-rdf-syntax-ns#"
   xmlns:svg="http://www.w3.org/2000/svg"
   xmlns="http://www.w3.org/2000/svg"
   xmlns:sodipodi="http://sodipodi.sourceforge.net/DTD/sodipodi-0.dtd"
   xmlns:inkscape="http://www.inkscape.org/namespaces/inkscape"
   version="1.1"
   id="svg2"
   viewBox="0 0 485.39148 485.41395"
   height="485.41397"
   width="485.39151"
   inkscape:version="0.91 r13725"
   sodipodi:docname="favicon.svg"
   inkscape:export-filename="/var/www/html/zs-hroznova/wp-content/themes/zs-hroznova/assets/images/zsh-icon-thumbnail.png"
   inkscape:export-xdpi="27.812601"
   inkscape:export-ydpi="27.812601">
  <sodipodi:namedview
     pagecolor="#ffffff"
     bordercolor="#666666"
     borderopacity="1"
     objecttolerance="10"
     gridtolerance="10"
     guidetolerance="10"
     inkscape:pageopacity="0"
     inkscape:pageshadow="2"
     inkscape:window-width="1920"
     inkscape:window-height="1056"
     id="namedview45"
     showgrid="false"
     inkscape:zoom="0.78421053"
     inkscape:cx="35.808059"
     inkscape:cy="263.38576"
     inkscape:window-x="0"
     inkscape:window-y="24"
     inkscape:window-maximized="1"
     inkscape:current-layer="svg2"
     fit-margin-top="0"
     fit-margin-left="0"
     fit-margin-right="0"
     fit-margin-bottom="0" />
  <defs
     id="defs4" />
  <metadata
     id="metadata7">
    <rdf:RDF>
      <cc:Work
         rdf:about="">
        <dc:format>image/svg+xml</dc:format>
        <dc:type
           rdf:resource="http://purl.org/dc/dcmitype/StillImage" />
        <dc:title></dc:title>
      </cc:Work>
    </rdf:RDF>
  </metadata>
  <g
     id="g10005"
     transform="translate(532.1349,420.01176)">
    <rect
       y="-363.95251"
       x="-476.08688"
       height="373.29541"
       width="373.29541"
       id="rect10003"
       style="opacity:1;fill:#ffffff;fill-opacity:1;stroke:none;stroke-width:2;stroke-linecap:butt;stroke-linejoin:miter;stroke-miterlimit:4;stroke-dasharray:none;stroke-dashoffset:8;stroke-opacity:1" />
    <path
       inkscape:connector-curvature="0"
       id="path4210"
       d="m -289.43783,-420.01176 c -82.53459,0 -165.06958,15.5267 -196.12057,46.57889 -62.102,62.1044 -62.102,330.152267 0,392.256655 62.10199,62.10449 330.13656,62.10449 392.238454,0 62.10199,-62.104388 62.10199,-330.152255 0,-392.256655 -31.051004,-31.05209 -113.583194,-46.57889 -196.117884,-46.57889 z m -41.07689,95.93229 a 39.44495,39.446497 0 0 1 39.44509,39.44659 39.44495,39.446497 0 0 1 -39.44509,39.4467 39.44495,39.446497 0 0 1 -39.4451,-39.4467 39.44495,39.446497 0 0 1 39.4451,-39.44659 z m 92.81008,0 a 39.44495,39.446497 0 0 1 39.4451,39.44659 39.44495,39.446497 0 0 1 -39.4451,39.4467 39.44495,39.446497 0 0 1 -39.44509,-39.4467 39.44495,39.446497 0 0 1 39.44509,-39.44659 z m -139.21508,78.89329 a 39.44495,39.446497 0 0 1 39.4451,39.44659 39.44495,39.446497 0 0 1 -39.4451,39.4467 39.44495,39.446497 0 0 1 -39.44509,-39.4467 39.44495,39.446497 0 0 1 39.44509,-39.44659 z m 92.81009,0 a 39.44495,39.446497 0 0 1 39.4451,39.44659 39.44495,39.446497 0 0 1 -39.4451,39.4467 39.44495,39.446497 0 0 1 -39.44509,-39.4467 39.44495,39.446497 0 0 1 39.44509,-39.44659 z m -46.40509,78.89329 a 39.44495,39.446497 0 0 1 39.44509,39.4466 39.44495,39.446497 0 0 1 -39.44509,39.446687 39.44495,39.446497 0 0 1 -39.4451,-39.446687 39.44495,39.446497 0 0 1 39.4451,-39.4466 z m 92.81008,0 a 39.44495,39.446497 0 0 1 39.4451,39.4466 39.44495,39.446497 0 0 1 -39.4451,39.446687 39.44495,39.446497 0 0 1 -39.44509,-39.446687 39.44495,39.446497 0 0 1 39.44509,-39.4466 z m -46.40499,78.893287 a 39.44495,39.446497 0 0 1 39.4451,39.4466 39.44495,39.446497 0 0 1 -39.4451,39.4466863 39.44495,39.446497 0 0 1 -39.44509,-39.4466863 39.44495,39.446497 0 0 1 39.44509,-39.4466 z"
       style="opacity:1;fill:#27b240;fill-opacity:1;stroke:none;stroke-width:2;stroke-linecap:butt;stroke-linejoin:miter;stroke-miterlimit:4;stroke-dasharray:none;stroke-dashoffset:8;stroke-opacity:1" />
  </g>
</svg>
