<?xml version="1.0" encoding="UTF-8" standalone="no"?>
<svg
   xmlns:dc="http://purl.org/dc/elements/1.1/"
   xmlns:cc="http://creativecommons.org/ns#"
   xmlns:rdf="http://www.w3.org/1999/02/22-rdf-syntax-ns#"
   xmlns:svg="http://www.w3.org/2000/svg"
   xmlns="http://www.w3.org/2000/svg"
   version="1.1"
   id="svg2"
   viewBox="0 0 189.99999 39.999998"
   height="40"
   width="190">
  <defs
     id="defs4" />
  <metadata
     id="metadata7">
    <rdf:RDF>
      <cc:Work
         rdf:about="">
        <dc:format>image/svg+xml</dc:format>
        <dc:type
           rdf:resource="http://purl.org/dc/dcmitype/StillImage" />
        <dc:title></dc:title>
      </cc:Work>
    </rdf:RDF>
  </metadata>
  <g
     transform="translate(-7982.9754,-10970.459)"
     id="layer1">
    <g
       transform="matrix(0.09779529,0,0,0.09779912,7987.3923,10923.879)"
       id="g4891"
       style="fill:#ffffff;fill-opacity:1">
      <g
         id="g4893"
         transform="translate(0,2)"
         style="fill:#ffffff;fill-opacity:1" />
      <g
         id="g4895"
         transform="translate(-60,0)"
         style="fill:#ffffff;fill-opacity:1" />
      <g
         id="g4897"
         style="fill:#ffffff;fill-opacity:1" />
      <g
         id="g4899"
         style="fill:#ffffff;fill-opacity:1">
        <circle
           style="fill:#ffffff;fill-opacity:1;fill-rule:evenodd;stroke:none;stroke-width:1px;stroke-linecap:butt;stroke-linejoin:miter;stroke-opacity:1"
           id="circle4901"
           cx="66"
           cy="526.36218"
           r="51"
           transform="translate(0,2)" />
        <circle
           r="51"
           cy="526.36218"
           cx="186"
           id="circle4903"
           style="fill:#ffffff;fill-opacity:1;fill-rule:evenodd;stroke:none;stroke-width:1px;stroke-linecap:butt;stroke-linejoin:miter;stroke-opacity:1"
           transform="translate(0,2)" />
        <circle
           r="51"
           cy="630.36218"
           cx="66"
           id="circle4905"
           style="fill:#ffffff;fill-opacity:1;fill-rule:evenodd;stroke:none;stroke-width:1px;stroke-linecap:butt;stroke-linejoin:miter;stroke-opacity:1"
           transform="translate(-60,0)" />
        <circle
           style="fill:#ffffff;fill-opacity:1;fill-rule:evenodd;stroke:none;stroke-width:1px;stroke-linecap:butt;stroke-linejoin:miter;stroke-opacity:1"
           id="circle4907"
           cx="186"
           cy="630.36218"
           r="51"
           transform="translate(-60,0)" />
        <circle
           style="fill:#ffffff;fill-opacity:1;fill-rule:evenodd;stroke:none;stroke-width:1px;stroke-linecap:butt;stroke-linejoin:miter;stroke-opacity:1"
           id="circle4909"
           cx="66"
           cy="732.36218"
           r="51" />
        <circle
           r="51"
           cy="732.36218"
           cx="186"
           id="circle4911"
           style="fill:#ffffff;fill-opacity:1;fill-rule:evenodd;stroke:none;stroke-width:1px;stroke-linecap:butt;stroke-linejoin:miter;stroke-opacity:1" />
        <circle
           r="51"
           cy="834.36218"
           cx="126"
           id="circle4913"
           style="fill:#ffffff;fill-opacity:1;fill-rule:evenodd;stroke:none;stroke-width:1px;stroke-linecap:butt;stroke-linejoin:miter;stroke-opacity:1" />
      </g>
    </g>
    <path
       d="m 8027.5209,10986.888 -8.0906,0 0,-1.494 5.2128,-7.474 -5.0715,0 0,-1.904 7.808,0 0,1.488 -5.2053,7.481 5.3466,0 0,1.903 z"
       style="font-style:normal;font-variant:normal;font-weight:bold;font-stretch:normal;font-size:120px;line-height:125%;font-family:'Open Sans';-inkscape-font-specification:'Open Sans Bold';letter-spacing:0px;word-spacing:0px;fill:#ffffff;fill-opacity:1;stroke:none;stroke-width:1px;stroke-linecap:butt;stroke-linejoin:miter;stroke-opacity:1"
       id="path4873" />
    <path
       d="m 8034.3696,10986.888 -0.4387,-1.13 -0.06,0 q -0.5726,0.721 -1.1823,1.004 -0.6024,0.275 -1.5765,0.275 -1.1972,0 -1.8888,-0.684 -0.6841,-0.684 -0.6841,-1.948 0,-1.324 0.9221,-1.949 0.9295,-0.632 2.796,-0.699 l 1.4426,-0.04 0,-0.365 q 0,-1.264 -1.2939,-1.264 -0.9965,0 -2.3424,0.602 l -0.7511,-1.532 q 1.4352,-0.751 3.1827,-0.751 1.6732,0 2.5655,0.729 0.8924,0.729 0.8924,2.216 l 0,5.54 -1.584,0 z m -0.6692,-3.852 -0.8775,0.03 q -0.989,0.03 -1.4724,0.357 -0.4833,0.327 -0.4833,0.997 0,0.959 1.1005,0.959 0.7883,0 1.2568,-0.454 0.4759,-0.453 0.4759,-1.205 l 0,-0.684 z m -2.5209,-5.376 0,-0.201 q 1.279,-1.487 1.7475,-2.238 l 2.5432,0 0,0.156 q -0.3867,0.386 -1.3236,1.152 -0.9296,0.759 -1.4575,1.131 l -1.5096,0 z"
       style="font-style:normal;font-variant:normal;font-weight:bold;font-stretch:normal;font-size:120px;line-height:125%;font-family:'Open Sans';-inkscape-font-specification:'Open Sans Bold';letter-spacing:0px;word-spacing:0px;fill:#ffffff;fill-opacity:1;stroke:none;stroke-width:1px;stroke-linecap:butt;stroke-linejoin:miter;stroke-opacity:1"
       id="path4875" />
    <path
       d="m 8040.4599,10982.367 0.989,-1.264 2.3275,-2.529 2.5581,0 -3.3017,3.607 3.5025,4.707 -2.6176,0 -2.3944,-3.368 -0.9742,0.78 0,2.588 -2.268,0 0,-11.571 2.268,0 0,5.161 -0.119,1.889 0.03,0 z"
       style="font-style:normal;font-variant:normal;font-weight:bold;font-stretch:normal;font-size:120px;line-height:125%;font-family:'Open Sans';-inkscape-font-specification:'Open Sans Bold';letter-spacing:0px;word-spacing:0px;fill:#ffffff;fill-opacity:1;stroke:none;stroke-width:1px;stroke-linecap:butt;stroke-linejoin:miter;stroke-opacity:1"
       id="path4877" />
    <path
       d="m 8050.008,10986.888 -2.2681,0 0,-11.571 2.2681,0 0,11.571 z"
       style="font-style:normal;font-variant:normal;font-weight:bold;font-stretch:normal;font-size:120px;line-height:125%;font-family:'Open Sans';-inkscape-font-specification:'Open Sans Bold';letter-spacing:0px;word-spacing:0px;fill:#ffffff;fill-opacity:1;stroke:none;stroke-width:1px;stroke-linecap:butt;stroke-linejoin:miter;stroke-opacity:1"
       id="path4879" />
    <path
       d="m 8057.6598,10986.888 -0.4387,-1.13 -0.059,0 q -0.5726,0.721 -1.1824,1.004 -0.6023,0.275 -1.5765,0.275 -1.1972,0 -1.8887,-0.684 -0.6842,-0.684 -0.6842,-1.948 0,-1.324 0.9221,-1.949 0.9295,-0.632 2.796,-0.699 l 1.4426,-0.04 0,-0.365 q 0,-1.264 -1.2939,-1.264 -0.9964,0 -2.3424,0.602 l -0.751,-1.532 q 1.4352,-0.751 3.1827,-0.751 1.6731,0 2.5655,0.729 0.8923,0.729 0.8923,2.216 l 0,5.54 -1.5839,0 z m -0.6693,-3.852 -0.8774,0.03 q -0.989,0.03 -1.4724,0.357 -0.4833,0.327 -0.4833,0.997 0,0.959 1.1005,0.959 0.7883,0 1.2567,-0.454 0.4759,-0.453 0.4759,-1.205 l 0,-0.684 z"
       style="font-style:normal;font-variant:normal;font-weight:bold;font-stretch:normal;font-size:120px;line-height:125%;font-family:'Open Sans';-inkscape-font-specification:'Open Sans Bold';letter-spacing:0px;word-spacing:0px;fill:#ffffff;fill-opacity:1;stroke:none;stroke-width:1px;stroke-linecap:butt;stroke-linejoin:miter;stroke-opacity:1"
       id="path4881" />
    <path
       d="m 8064.2037,10987.037 q -1.465,0 -2.3053,-1.138 -0.8328,-1.137 -0.8328,-3.153 0,-2.045 0.8477,-3.183 0.8552,-1.145 2.3498,-1.145 1.5691,0 2.3945,1.22 l 0.074,0 q -0.1711,-0.93 -0.1711,-1.659 l 0,-2.662 2.2755,0 0,11.571 -1.7401,0 -0.4387,-1.078 -0.097,0 q -0.7733,1.227 -2.3572,1.227 z m 0.7956,-1.807 q 0.8701,0 1.2716,-0.506 0.409,-0.505 0.4462,-1.717 l 0,-0.246 q 0,-1.338 -0.4164,-1.918 -0.409,-0.581 -1.3385,-0.581 -0.7585,0 -1.1824,0.647 -0.4164,0.64 -0.4164,1.867 0,1.227 0.4238,1.844 0.4239,0.61 1.2121,0.61 z"
       style="font-style:normal;font-variant:normal;font-weight:bold;font-stretch:normal;font-size:120px;line-height:125%;font-family:'Open Sans';-inkscape-font-specification:'Open Sans Bold';letter-spacing:0px;word-spacing:0px;fill:#ffffff;fill-opacity:1;stroke:none;stroke-width:1px;stroke-linecap:butt;stroke-linejoin:miter;stroke-opacity:1"
       id="path4883" />
    <path
       d="m 8078.8827,10986.888 -2.268,0 0,-4.856 q 0,-0.899 -0.3198,-1.346 -0.3197,-0.453 -1.0187,-0.453 -0.9519,0 -1.3757,0.639 -0.4239,0.632 -0.4239,2.105 l 0,3.911 -2.268,0 0,-8.314 1.7326,0 0.3049,1.064 0.1264,0 q 0.3792,-0.603 1.0411,-0.907 0.6692,-0.313 1.5169,-0.313 1.4501,0 2.2012,0.789 0.751,0.78 0.751,2.26 l 0,5.421 z"
       style="font-style:normal;font-variant:normal;font-weight:bold;font-stretch:normal;font-size:120px;line-height:125%;font-family:'Open Sans';-inkscape-font-specification:'Open Sans Bold';letter-spacing:0px;word-spacing:0px;fill:#ffffff;fill-opacity:1;stroke:none;stroke-width:1px;stroke-linecap:butt;stroke-linejoin:miter;stroke-opacity:1"
       id="path4885" />
    <path
       d="m 8083.5006,10986.888 -2.2681,0 0,-8.314 2.2681,0 0,8.314 z m -2.3796,-9.228 0,-0.201 q 1.279,-1.487 1.7475,-2.238 l 2.5432,0 0,0.156 q -0.3867,0.386 -1.3237,1.152 -0.9295,0.759 -1.4575,1.131 l -1.5095,0 z"
       style="font-style:normal;font-variant:normal;font-weight:bold;font-stretch:normal;font-size:120px;line-height:125%;font-family:'Open Sans';-inkscape-font-specification:'Open Sans Bold';letter-spacing:0px;word-spacing:0px;fill:#ffffff;fill-opacity:1;stroke:none;stroke-width:1px;stroke-linecap:butt;stroke-linejoin:miter;stroke-opacity:1"
       id="path4887" />
    <path
       d="m 8095.629,10984.42 q 0,1.279 -0.8923,1.948 -0.8849,0.669 -2.6547,0.669 -0.9073,0 -1.5468,-0.126 -0.6395,-0.119 -1.1972,-0.357 l 0,-1.874 q 0.6321,0.297 1.4203,0.498 0.7957,0.201 1.398,0.201 1.2344,0 1.2344,-0.714 0,-0.268 -0.1636,-0.431 -0.1636,-0.171 -0.5651,-0.38 -0.4016,-0.215 -1.0708,-0.498 -0.9593,-0.402 -1.4129,-0.744 -0.4462,-0.342 -0.6544,-0.78 -0.2008,-0.447 -0.2008,-1.094 0,-1.108 0.8552,-1.71 0.8626,-0.61 2.4391,-0.61 1.5021,0 2.9224,0.655 l -0.6841,1.636 q -0.6247,-0.268 -1.1675,-0.439 -0.5429,-0.171 -1.108,-0.171 -1.0039,0 -1.0039,0.543 0,0.305 0.3197,0.528 0.3272,0.223 1.4204,0.662 0.9741,0.394 1.4277,0.736 0.4536,0.342 0.6693,0.788 0.2156,0.446 0.2156,1.064 z m 0.238,-9.199 0,0.2 q -0.6247,0.625 -1.1526,1.25 -0.5206,0.617 -0.7511,0.989 l -2.6547,0 q -0.2157,-0.35 -0.6172,-0.833 -0.4016,-0.491 -1.2865,-1.406 l 0,-0.2 1.5096,0 q 1.0931,0.691 1.7029,1.308 0.6246,-0.647 1.74,-1.308 l 1.5096,0 z"
       style="font-style:normal;font-variant:normal;font-weight:bold;font-stretch:normal;font-size:120px;line-height:125%;font-family:'Open Sans';-inkscape-font-specification:'Open Sans Bold';letter-spacing:0px;word-spacing:0px;fill:#ffffff;fill-opacity:1;stroke:none;stroke-width:1px;stroke-linecap:butt;stroke-linejoin:miter;stroke-opacity:1"
       id="path4889" />
    <path
       d="m 8099.5925,10982.367 0.989,-1.264 2.3276,-2.529 2.558,0 -3.3017,3.607 3.5025,4.707 -2.6176,0 -2.3944,-3.368 -0.9742,0.78 0,2.588 -2.268,0 0,-11.571 2.268,0 0,5.161 -0.1189,1.889 0.03,0 z"
       style="font-style:normal;font-variant:normal;font-weight:bold;font-stretch:normal;font-size:120px;line-height:125%;font-family:'Open Sans';-inkscape-font-specification:'Open Sans Bold';letter-spacing:0px;word-spacing:0px;fill:#ffffff;fill-opacity:1;stroke:none;stroke-width:1px;stroke-linecap:butt;stroke-linejoin:miter;stroke-opacity:1"
       id="path4891" />
    <path
       d="m 8108.6795,10982.717 q 0,1.234 0.4016,1.866 0.409,0.632 1.3236,0.632 0.9073,0 1.3014,-0.624 0.4015,-0.633 0.4015,-1.874 0,-1.235 -0.4015,-1.852 -0.4016,-0.617 -1.3162,-0.617 -0.9073,0 -1.3088,0.617 -0.4016,0.61 -0.4016,1.852 z m 5.7482,0 q 0,2.03 -1.0708,3.175 -1.0708,1.145 -2.9819,1.145 -1.1972,0 -2.1119,-0.52 -0.9146,-0.528 -1.4054,-1.51 -0.4908,-0.982 -0.4908,-2.29 0,-2.038 1.0634,-3.168 1.0633,-1.131 2.9893,-1.131 1.1972,0 2.1119,0.521 0.9146,0.52 1.4054,1.495 0.4908,0.974 0.4908,2.283 z"
       style="font-style:normal;font-variant:normal;font-weight:bold;font-stretch:normal;font-size:120px;line-height:125%;font-family:'Open Sans';-inkscape-font-specification:'Open Sans Bold';letter-spacing:0px;word-spacing:0px;fill:#ffffff;fill-opacity:1;stroke:none;stroke-width:1px;stroke-linecap:butt;stroke-linejoin:miter;stroke-opacity:1"
       id="path4893" />
    <path
       d="m 8118.5697,10986.888 -2.2681,0 0,-11.571 2.2681,0 0,11.571 z"
       style="font-style:normal;font-variant:normal;font-weight:bold;font-stretch:normal;font-size:120px;line-height:125%;font-family:'Open Sans';-inkscape-font-specification:'Open Sans Bold';letter-spacing:0px;word-spacing:0px;fill:#ffffff;fill-opacity:1;stroke:none;stroke-width:1px;stroke-linecap:butt;stroke-linejoin:miter;stroke-opacity:1"
       id="path4895" />
    <path
       d="m 8126.2215,10986.888 -0.4387,-1.13 -0.06,0 q -0.5726,0.721 -1.1823,1.004 -0.6024,0.275 -1.5765,0.275 -1.1973,0 -1.8888,-0.684 -0.6841,-0.684 -0.6841,-1.948 0,-1.324 0.922,-1.949 0.9296,-0.632 2.7961,-0.699 l 1.4426,-0.04 0,-0.365 q 0,-1.264 -1.2939,-1.264 -0.9965,0 -2.3424,0.602 l -0.7511,-1.532 q 1.4352,-0.751 3.1827,-0.751 1.6731,0 2.5655,0.729 0.8923,0.729 0.8923,2.216 l 0,5.54 -1.5839,0 z m -0.6692,-3.852 -0.8775,0.03 q -0.989,0.03 -1.4724,0.357 -0.4833,0.327 -0.4833,0.997 0,0.959 1.1005,0.959 0.7883,0 1.2567,-0.454 0.476,-0.453 0.476,-1.205 l 0,-0.684 z"
       style="font-style:normal;font-variant:normal;font-weight:bold;font-stretch:normal;font-size:120px;line-height:125%;font-family:'Open Sans';-inkscape-font-specification:'Open Sans Bold';letter-spacing:0px;word-spacing:0px;fill:#ffffff;fill-opacity:1;stroke:none;stroke-width:1px;stroke-linecap:butt;stroke-linejoin:miter;stroke-opacity:1"
       id="path4897" />
    <path
       d="m 8134.2675,10976.016 3.3835,0 q 2.3126,0 3.3537,0.662 1.0485,0.655 1.0485,2.09 0,0.974 -0.461,1.599 -0.4537,0.624 -1.2121,0.751 l 0,0.07 q 1.0336,0.231 1.4872,0.863 0.461,0.632 0.461,1.68 0,1.488 -1.0782,2.321 -1.0708,0.832 -2.915,0.832 l -4.0676,0 0,-10.872 z m 2.3052,4.306 1.3385,0 q 0.937,0 1.3534,-0.29 0.4239,-0.29 0.4239,-0.959 0,-0.625 -0.4611,-0.893 -0.4536,-0.275 -1.4426,-0.275 l -1.2121,0 0,2.417 z m 0,1.829 0,2.834 1.5021,0 q 0.9519,0 1.4055,-0.365 0.4536,-0.364 0.4536,-1.115 0,-1.354 -1.9334,-1.354 l -1.4278,0 z"
       style="font-style:normal;font-variant:normal;font-weight:bold;font-stretch:normal;font-size:120px;line-height:125%;font-family:'Open Sans';-inkscape-font-specification:'Open Sans Bold';letter-spacing:0px;word-spacing:0px;fill:#ffffff;fill-opacity:1;stroke:none;stroke-width:1px;stroke-linecap:butt;stroke-linejoin:miter;stroke-opacity:1"
       id="path4899" />
    <path
       d="m 8148.9614,10978.418 q 0.4611,0 0.7659,0.07 l -0.171,2.127 q -0.2751,-0.07 -0.6693,-0.07 -1.0856,0 -1.6954,0.557 -0.6023,0.558 -0.6023,1.562 l 0,4.231 -2.2681,0 0,-8.314 1.7178,0 0.3346,1.398 0.1116,0 q 0.3866,-0.699 1.041,-1.122 0.6619,-0.432 1.4352,-0.432 z"
       style="font-style:normal;font-variant:normal;font-weight:bold;font-stretch:normal;font-size:120px;line-height:125%;font-family:'Open Sans';-inkscape-font-specification:'Open Sans Bold';letter-spacing:0px;word-spacing:0px;fill:#ffffff;fill-opacity:1;stroke:none;stroke-width:1px;stroke-linecap:butt;stroke-linejoin:miter;stroke-opacity:1"
       id="path4901" />
    <path
       d="m 8158.9259,10986.888 -2.268,0 0,-4.856 q 0,-0.899 -0.3198,-1.346 -0.3197,-0.453 -1.0187,-0.453 -0.9519,0 -1.3757,0.639 -0.4239,0.632 -0.4239,2.105 l 0,3.911 -2.268,0 0,-8.314 1.7326,0 0.3049,1.064 0.1264,0 q 0.3792,-0.603 1.0411,-0.907 0.6692,-0.313 1.517,-0.313 1.45,0 2.2011,0.789 0.751,0.78 0.751,2.26 l 0,5.421 z"
       style="font-style:normal;font-variant:normal;font-weight:bold;font-stretch:normal;font-size:120px;line-height:125%;font-family:'Open Sans';-inkscape-font-specification:'Open Sans Bold';letter-spacing:0px;word-spacing:0px;fill:#ffffff;fill-opacity:1;stroke:none;stroke-width:1px;stroke-linecap:butt;stroke-linejoin:miter;stroke-opacity:1"
       id="path4903" />
    <path
       d="m 8163.0828,10982.717 q 0,1.234 0.4015,1.866 0.409,0.632 1.3236,0.632 0.9073,0 1.3014,-0.624 0.4015,-0.633 0.4015,-1.874 0,-1.235 -0.4015,-1.852 -0.4016,-0.617 -1.3162,-0.617 -0.9072,0 -1.3088,0.617 -0.4015,0.61 -0.4015,1.852 z m 5.7481,0 q 0,2.03 -1.0708,3.175 -1.0708,1.145 -2.9819,1.145 -1.1972,0 -2.1119,-0.52 -0.9146,-0.528 -1.4054,-1.51 -0.4908,-0.982 -0.4908,-2.29 0,-2.038 1.0634,-3.168 1.0634,-1.131 2.9893,-1.131 1.1972,0 2.1119,0.521 0.9147,0.52 1.4054,1.495 0.4908,0.974 0.4908,2.283 z"
       style="font-style:normal;font-variant:normal;font-weight:bold;font-stretch:normal;font-size:120px;line-height:125%;font-family:'Open Sans';-inkscape-font-specification:'Open Sans Bold';letter-spacing:0px;word-spacing:0px;fill:#ffffff;fill-opacity:1;stroke:none;stroke-width:1px;stroke-linecap:butt;stroke-linejoin:miter;stroke-opacity:1"
       id="path4905" />
    <path
       d="m 8172.9283,10985.29 q -0.3867,1.502 -1.3088,3.562 l -1.6359,0 q 0.4833,-1.978 0.751,-3.733 l 2.0821,0 0.1116,0.171 z"
       style="font-style:normal;font-variant:normal;font-weight:bold;font-stretch:normal;font-size:120px;line-height:125%;font-family:'Open Sans';-inkscape-font-specification:'Open Sans Bold';letter-spacing:0px;word-spacing:0px;fill:#ffffff;fill-opacity:1;stroke:none;stroke-width:1px;stroke-linecap:butt;stroke-linejoin:miter;stroke-opacity:1"
       id="path4907" />
    <path
       d="m 8029.3428,11005.926 -2.2978,0 0,-4.693 -4.3056,0 0,4.693 -2.3052,0 0,-10.872 2.3052,0 0,4.261 4.3056,0 0,-4.261 2.2978,0 0,10.872 z"
       style="font-style:normal;font-variant:normal;font-weight:bold;font-stretch:normal;font-size:120px;line-height:125%;font-family:'Open Sans';-inkscape-font-specification:'Open Sans Bold';letter-spacing:0px;word-spacing:0px;fill:#ffffff;fill-opacity:1;stroke:none;stroke-width:1px;stroke-linecap:butt;stroke-linejoin:miter;stroke-opacity:1"
       id="path4909" />
    <path
       d="m 8036.5559,10997.456 q 0.461,0 0.7659,0.07 l -0.171,2.126 q -0.2752,-0.07 -0.6693,-0.07 -1.0857,0 -1.6954,0.558 -0.6024,0.558 -0.6024,1.561 l 0,4.232 -2.268,0 0,-8.314 1.7178,0 0.3346,1.398 0.1115,0 q 0.3867,-0.699 1.0411,-1.123 0.6618,-0.431 1.4352,-0.431 z"
       style="font-style:normal;font-variant:normal;font-weight:bold;font-stretch:normal;font-size:120px;line-height:125%;font-family:'Open Sans';-inkscape-font-specification:'Open Sans Bold';letter-spacing:0px;word-spacing:0px;fill:#ffffff;fill-opacity:1;stroke:none;stroke-width:1px;stroke-linecap:butt;stroke-linejoin:miter;stroke-opacity:1"
       id="path4911" />
    <path
       d="m 8040.6532,11001.754 q 0,1.234 0.4016,1.867 0.409,0.632 1.3236,0.632 0.9072,0 1.3014,-0.625 0.4015,-0.632 0.4015,-1.874 0,-1.235 -0.4015,-1.852 -0.4016,-0.617 -1.3163,-0.617 -0.9072,0 -1.3087,0.617 -0.4016,0.61 -0.4016,1.852 z m 5.7482,0 q 0,2.03 -1.0708,3.175 -1.0708,1.146 -2.9819,1.146 -1.1972,0 -2.1119,-0.521 -0.9147,-0.528 -1.4054,-1.51 -0.4908,-0.981 -0.4908,-2.29 0,-2.038 1.0633,-3.168 1.0634,-1.13 2.9894,-1.13 1.1972,0 2.1119,0.52 0.9146,0.521 1.4054,1.495 0.4908,0.974 0.4908,2.283 z"
       style="font-style:normal;font-variant:normal;font-weight:bold;font-stretch:normal;font-size:120px;line-height:125%;font-family:'Open Sans';-inkscape-font-specification:'Open Sans Bold';letter-spacing:0px;word-spacing:0px;fill:#ffffff;fill-opacity:1;stroke:none;stroke-width:1px;stroke-linecap:butt;stroke-linejoin:miter;stroke-opacity:1"
       id="path4913" />
    <path
       d="m 8054.0607,11005.926 -6.5662,0 0,-1.339 3.852,-5.242 -3.6215,0 0,-1.733 6.2018,0 0,1.472 -3.7478,5.109 3.8817,0 0,1.733 z"
       style="font-style:normal;font-variant:normal;font-weight:bold;font-stretch:normal;font-size:120px;line-height:125%;font-family:'Open Sans';-inkscape-font-specification:'Open Sans Bold';letter-spacing:0px;word-spacing:0px;fill:#ffffff;fill-opacity:1;stroke:none;stroke-width:1px;stroke-linecap:butt;stroke-linejoin:miter;stroke-opacity:1"
       id="path4915" />
    <path
       d="m 8063.3857,11005.926 -2.2681,0 0,-4.856 q 0,-0.9 -0.3197,-1.346 -0.3198,-0.454 -1.0188,-0.454 -0.9518,0 -1.3757,0.64 -0.4238,0.632 -0.4238,2.104 l 0,3.912 -2.2681,0 0,-8.314 1.7327,0 0.3048,1.063 0.1265,0 q 0.3792,-0.602 1.041,-0.907 0.6693,-0.312 1.517,-0.312 1.4501,0 2.2011,0.788 0.7511,0.781 0.7511,2.261 l 0,5.421 z"
       style="font-style:normal;font-variant:normal;font-weight:bold;font-stretch:normal;font-size:120px;line-height:125%;font-family:'Open Sans';-inkscape-font-specification:'Open Sans Bold';letter-spacing:0px;word-spacing:0px;fill:#ffffff;fill-opacity:1;stroke:none;stroke-width:1px;stroke-linecap:butt;stroke-linejoin:miter;stroke-opacity:1"
       id="path4917" />
    <path
       d="m 8067.5425,11001.754 q 0,1.234 0.4016,1.867 0.409,0.632 1.3236,0.632 0.9072,0 1.3013,-0.625 0.4016,-0.632 0.4016,-1.874 0,-1.235 -0.4016,-1.852 -0.4015,-0.617 -1.3162,-0.617 -0.9072,0 -1.3087,0.617 -0.4016,0.61 -0.4016,1.852 z m 5.7482,0 q 0,2.03 -1.0708,3.175 -1.0708,1.146 -2.9819,1.146 -1.1973,0 -2.1119,-0.521 -0.9147,-0.528 -1.4055,-1.51 -0.4907,-0.981 -0.4907,-2.29 0,-2.038 1.0633,-3.168 1.0634,-1.13 2.9894,-1.13 1.1972,0 2.1119,0.52 0.9146,0.521 1.4054,1.495 0.4908,0.974 0.4908,2.283 z"
       style="font-style:normal;font-variant:normal;font-weight:bold;font-stretch:normal;font-size:120px;line-height:125%;font-family:'Open Sans';-inkscape-font-specification:'Open Sans Bold';letter-spacing:0px;word-spacing:0px;fill:#ffffff;fill-opacity:1;stroke:none;stroke-width:1px;stroke-linecap:butt;stroke-linejoin:miter;stroke-opacity:1"
       id="path4919" />
    <path
       d="m 8077.1426,11005.926 -3.1678,-8.314 2.3722,0 1.6062,4.737 q 0.2677,0.9 0.3346,1.703 l 0.045,0 q 0.037,-0.714 0.3347,-1.703 l 1.5987,-4.737 2.3722,0 -3.1678,8.314 -2.3276,0 z"
       style="font-style:normal;font-variant:normal;font-weight:bold;font-stretch:normal;font-size:120px;line-height:125%;font-family:'Open Sans';-inkscape-font-specification:'Open Sans Bold';letter-spacing:0px;word-spacing:0px;fill:#ffffff;fill-opacity:1;stroke:none;stroke-width:1px;stroke-linecap:butt;stroke-linejoin:miter;stroke-opacity:1"
       id="path4921" />
    <path
       d="m 8089.1,11005.926 -0.4387,-1.131 -0.059,0 q -0.5726,0.722 -1.1823,1.004 -0.6024,0.276 -1.5765,0.276 -1.1972,0 -1.8888,-0.685 -0.6841,-0.684 -0.6841,-1.948 0,-1.324 0.9221,-1.948 0.9295,-0.632 2.796,-0.699 l 1.4426,-0.05 0,-0.364 q 0,-1.265 -1.2939,-1.265 -0.9965,0 -2.3424,0.603 l -0.7511,-1.532 q 1.4352,-0.751 3.1827,-0.751 1.6732,0 2.5655,0.729 0.8924,0.728 0.8924,2.216 l 0,5.54 -1.584,0 z m -0.6692,-3.852 -0.8775,0.03 q -0.989,0.03 -1.4724,0.357 -0.4833,0.328 -0.4833,0.997 0,0.959 1.1006,0.959 0.7882,0 1.2567,-0.453 0.4759,-0.454 0.4759,-1.205 l 0,-0.684 z m -2.5209,-5.377 0,-0.201 q 1.279,-1.487 1.7475,-2.238 l 2.5432,0 0,0.156 q -0.3867,0.387 -1.3236,1.153 -0.9296,0.758 -1.4575,1.13 l -1.5096,0 z"
       style="font-style:normal;font-variant:normal;font-weight:bold;font-stretch:normal;font-size:120px;line-height:125%;font-family:'Open Sans';-inkscape-font-specification:'Open Sans Bold';letter-spacing:0px;word-spacing:0px;fill:#ffffff;fill-opacity:1;stroke:none;stroke-width:1px;stroke-linecap:butt;stroke-linejoin:miter;stroke-opacity:1"
       id="path4923" />
    <path
       d="m 8102.0688,11005.926 -2.2978,0 0,-6.291 0.022,-1.034 0.037,-1.13 q -0.5726,0.572 -0.7957,0.751 l -1.2493,1.004 -1.108,-1.384 3.5025,-2.788 1.8888,0 0,10.872 z"
       style="font-style:normal;font-variant:normal;font-weight:bold;font-stretch:normal;font-size:120px;line-height:125%;font-family:'Open Sans';-inkscape-font-specification:'Open Sans Bold';letter-spacing:0px;word-spacing:0px;fill:#ffffff;fill-opacity:1;stroke:none;stroke-width:1px;stroke-linecap:butt;stroke-linejoin:miter;stroke-opacity:1"
       id="path4925" />
  </g>
</svg>
