<svg
   xmlns:dc="http://purl.org/dc/elements/1.1/"
   xmlns:cc="http://creativecommons.org/ns#"
   xmlns:rdf="http://www.w3.org/1999/02/22-rdf-syntax-ns#"
   xmlns:svg="http://www.w3.org/2000/svg"
   xmlns="http://www.w3.org/2000/svg"
   version="1.1"
   id="svg2"
   viewBox="0 0 1854.8618 408"
   height="115.14667mm"
   width="523.48322mm">
  <defs
     id="defs4" />
  <metadata
     id="metadata7">
    <rdf:RDF>
      <cc:Work
         rdf:about="">
        <dc:format>image/svg+xml</dc:format>
        <dc:type
           rdf:resource="http://purl.org/dc/dcmitype/StillImage" />
        <dc:title></dc:title>
      </cc:Work>
    </rdf:RDF>
  </metadata>
  <g
     transform="translate(21361.398,7402.2959)"
     id="layer1">
    <g
       id="g5268">
      <circle
         style="fill:#80b911;fill-opacity:1;fill-rule:evenodd;stroke:none;stroke-width:1px;stroke-linecap:butt;stroke-linejoin:miter;stroke-opacity:1"
         id="circle4550"
         cx="-21250.398"
         cy="-7351.2959"
         r="51" />
      <circle
         r="51"
         cy="-7351.2959"
         cx="-21130.398"
         id="circle4552"
         style="fill:#80b911;fill-opacity:1;fill-rule:evenodd;stroke:none;stroke-width:1px;stroke-linecap:butt;stroke-linejoin:miter;stroke-opacity:1" />
      <circle
         r="51"
         cy="-7249.2959"
         cx="-21310.398"
         id="circle4554"
         style="fill:#80b911;fill-opacity:1;fill-rule:evenodd;stroke:none;stroke-width:1px;stroke-linecap:butt;stroke-linejoin:miter;stroke-opacity:1" />
      <circle
         style="fill:#80b911;fill-opacity:1;fill-rule:evenodd;stroke:none;stroke-width:1px;stroke-linecap:butt;stroke-linejoin:miter;stroke-opacity:1"
         id="circle4556"
         cx="-21190.398"
         cy="-7249.2959"
         r="51" />
      <circle
         style="fill:#80b911;fill-opacity:1;fill-rule:evenodd;stroke:none;stroke-width:1px;stroke-linecap:butt;stroke-linejoin:miter;stroke-opacity:1"
         id="circle4558"
         cx="-21250.398"
         cy="-7147.2959"
         r="51" />
      <circle
         r="51"
         cy="-7147.2959"
         cx="-21130.398"
         id="circle4560"
         style="fill:#80b911;fill-opacity:1;fill-rule:evenodd;stroke:none;stroke-width:1px;stroke-linecap:butt;stroke-linejoin:miter;stroke-opacity:1" />
      <circle
         r="51"
         cy="-7045.2959"
         cx="-21190.398"
         id="circle4562"
         style="fill:#80b911;fill-opacity:1;fill-rule:evenodd;stroke:none;stroke-width:1px;stroke-linecap:butt;stroke-linejoin:miter;stroke-opacity:1" />
      <g
         transform="translate(-21313.564,-7814.3876)"
         style="font-style:normal;font-weight:normal;font-size:40px;line-height:125%;font-family:sans-serif;letter-spacing:0px;word-spacing:0px;fill:#80b911;fill-opacity:1;stroke:none;stroke-width:1px;stroke-linecap:butt;stroke-linejoin:miter;stroke-opacity:1"
         id="flowRoot4564">
        <path
           d="m 430.89453,594.30654 -63.75,0 0,-11.77734 41.07422,-58.88672 -39.96094,0 0,-15 61.52344,0 0,11.71875 -41.01563,58.94531 42.12891,0 0,15 z"
           style="font-style:normal;font-variant:normal;font-weight:bold;font-stretch:normal;font-size:120px;line-height:125%;font-family:'Open Sans';-inkscape-font-specification:'Open Sans Bold';fill:#80b911;fill-opacity:1"
           id="path5196" />
        <path
           d="m 497.10547,594.30654 -6.21094,-20.39062 -31.23047,0 -6.21094,20.39062 -19.57031,0 30.23438,-86.01562 22.20703,0 30.35156,86.01562 -19.57031,0 z m -10.54688,-35.625 q -8.61328,-27.71484 -9.72656,-31.34766 -1.05469,-3.63281 -1.52344,-5.74218 -1.93359,7.5 -11.07422,37.08984 l 22.32422,0 z m -20.97656,-56.89453 0,-1.58203 q 10.07813,-11.71875 13.76953,-17.63672 l 20.03906,0 0,1.23047 q -3.04687,3.04687 -10.42968,9.08203 -7.32422,5.97656 -11.48438,8.90625 l -11.89453,0 z"
           style="font-style:normal;font-variant:normal;font-weight:bold;font-stretch:normal;font-size:120px;line-height:125%;font-family:'Open Sans';-inkscape-font-specification:'Open Sans Bold';fill:#80b911;fill-opacity:1"
           id="path5198" />
        <path
           d="m 596.30469,594.30654 -20.625,0 -22.44141,-36.09375 -7.67578,5.50781 0,30.58594 -18.16406,0 0,-85.66406 18.16406,0 0,39.19922 7.14844,-10.07813 23.20312,-29.12109 20.15625,0 -29.88281,37.91015 30.11719,47.75391 z"
           style="font-style:normal;font-variant:normal;font-weight:bold;font-stretch:normal;font-size:120px;line-height:125%;font-family:'Open Sans';-inkscape-font-specification:'Open Sans Bold';fill:#80b911;fill-opacity:1"
           id="path5200" />
        <path
           d="m 607.08594,594.30654 0,-85.66406 18.16406,0 0,70.66406 34.74609,0 0,15 -52.91015,0 z"
           style="font-style:normal;font-variant:normal;font-weight:bold;font-stretch:normal;font-size:120px;line-height:125%;font-family:'Open Sans';-inkscape-font-specification:'Open Sans Bold';fill:#80b911;fill-opacity:1"
           id="path5202" />
        <path
           d="m 727.26172,594.30654 -6.21094,-20.39062 -31.23047,0 -6.21094,20.39062 -19.57031,0 30.23438,-86.01562 22.20703,0 30.35156,86.01562 -19.57031,0 z m -10.54688,-35.625 q -8.61328,-27.71484 -9.72656,-31.34766 -1.05469,-3.63281 -1.52344,-5.74218 -1.93359,7.5 -11.07422,37.08984 l 22.32422,0 z"
           style="font-style:normal;font-variant:normal;font-weight:bold;font-stretch:normal;font-size:120px;line-height:125%;font-family:'Open Sans';-inkscape-font-specification:'Open Sans Bold';fill:#80b911;fill-opacity:1"
           id="path5204" />
        <path
           d="m 828.62891,550.6542 q 0,21.15234 -12.07032,32.40234 -12.01172,11.25 -34.74609,11.25 l -24.25781,0 0,-85.66406 26.89453,0 q 20.97656,0 32.57812,11.07422 11.60157,11.07422 11.60157,30.9375 z m -18.86719,0.46875 q 0,-27.59766 -24.375,-27.59766 l -9.66797,0 0,55.78125 7.79297,0 q 26.25,0 26.25,-28.18359 z"
           style="font-style:normal;font-variant:normal;font-weight:bold;font-stretch:normal;font-size:120px;line-height:125%;font-family:'Open Sans';-inkscape-font-specification:'Open Sans Bold';fill:#80b911;fill-opacity:1"
           id="path5206" />
        <path
           d="m 922.37891,594.30654 -23.08594,0 -37.26563,-64.80469 -0.52734,0 q 1.11328,17.16797 1.11328,24.49219 l 0,40.3125 -16.23047,0 0,-85.66406 22.91016,0 37.20703,64.16015 0.41016,0 q -0.87891,-16.69921 -0.87891,-23.61328 l 0,-40.54687 16.34766,0 0,85.66406 z"
           style="font-style:normal;font-variant:normal;font-weight:bold;font-stretch:normal;font-size:120px;line-height:125%;font-family:'Open Sans';-inkscape-font-specification:'Open Sans Bold';fill:#80b911;fill-opacity:1"
           id="path5208" />
        <path
           d="m 943.88281,594.30654 0,-85.66406 18.16406,0 0,85.66406 -18.16406,0 z m -0.99609,-92.51953 0,-1.58203 q 10.07812,-11.71875 13.76953,-17.63672 l 20.03906,0 0,1.23047 q -3.04687,3.04687 -10.42969,9.08203 -7.32421,5.97656 -11.48437,8.90625 l -11.89453,0 z"
           style="font-style:normal;font-variant:normal;font-weight:bold;font-stretch:normal;font-size:120px;line-height:125%;font-family:'Open Sans';-inkscape-font-specification:'Open Sans Bold';fill:#80b911;fill-opacity:1"
           id="path5210" />
        <path
           d="m 1065.4648,570.51748 q 0,11.60156 -8.3789,18.28125 -8.3203,6.67969 -23.2031,6.67969 -13.7109,0 -24.2578,-5.15625 l 0,-16.875 q 8.6719,3.86718 14.6484,5.44921 6.0352,1.58204 11.0157,1.58204 5.9765,0 9.1406,-2.28516 3.2226,-2.28516 3.2226,-6.79688 0,-2.51953 -1.4062,-4.45312 -1.4063,-1.99219 -4.1602,-3.80859 -2.6953,-1.81641 -11.0742,-5.80079 -7.8515,-3.6914 -11.7773,-7.08984 -3.9258,-3.39844 -6.2696,-7.91016 -2.3437,-4.51171 -2.3437,-10.54687 0,-11.36719 7.6758,-17.87109 7.7344,-6.50391 21.3281,-6.50391 6.6797,0 12.7148,1.58203 6.0938,1.58203 12.7149,4.45313 l -5.8594,14.12109 q -6.8555,-2.8125 -11.3672,-3.92578 -4.4531,-1.11328 -8.789,-1.11328 -5.1563,0 -7.9102,2.40234 -2.7539,2.40234 -2.7539,6.26953 0,2.40235 1.1133,4.21875 1.1133,1.75781 3.5156,3.45703 2.4609,1.64063 11.543,5.97657 12.0117,5.74218 16.4648,11.54296 4.4531,5.74219 4.4531,14.1211 z m -0.8203,-87.94922 0,1.58203 q -4.9218,4.92188 -9.082,9.84375 -4.1016,4.86328 -5.918,7.79297 l -20.9179,0 q -1.6993,-2.75391 -4.8633,-6.5625 -3.1641,-3.86719 -10.1367,-11.07422 l 0,-1.58203 11.8945,0 q 8.6133,5.44922 13.418,10.3125 4.9218,-5.09766 13.7109,-10.3125 l 11.8945,0 z"
           style="font-style:normal;font-variant:normal;font-weight:bold;font-stretch:normal;font-size:120px;line-height:125%;font-family:'Open Sans';-inkscape-font-specification:'Open Sans Bold';fill:#80b911;fill-opacity:1"
           id="path5212" />
        <path
           d="m 1149.8984,594.30654 -20.625,0 -22.4414,-36.09375 -7.6757,5.50781 0,30.58594 -18.1641,0 0,-85.66406 18.1641,0 0,39.19922 7.1484,-10.07813 23.2031,-29.12109 20.1563,0 -29.8828,37.91015 30.1171,47.75391 z"
           style="font-style:normal;font-variant:normal;font-weight:bold;font-stretch:normal;font-size:120px;line-height:125%;font-family:'Open Sans';-inkscape-font-specification:'Open Sans Bold';fill:#80b911;fill-opacity:1"
           id="path5214" />
        <path
           d="m 1238.4336,551.35732 q 0,21.26953 -10.5469,32.69531 -10.5469,11.42579 -30.2344,11.42579 -19.6875,0 -30.2343,-11.42579 -10.5469,-11.42578 -10.5469,-32.8125 0,-21.38671 10.5469,-32.63671 10.6054,-11.3086 30.3515,-11.3086 19.7461,0 30.1758,11.36719 10.4883,11.36719 10.4883,32.69531 z m -62.5195,0 q 0,14.35547 5.4492,21.6211 5.4492,7.26562 16.289,7.26562 21.7383,0 21.7383,-28.88672 0,-28.94531 -21.6211,-28.94531 -10.8398,0 -16.3476,7.32422 -5.5078,7.26562 -5.5078,21.62109 z"
           style="font-style:normal;font-variant:normal;font-weight:bold;font-stretch:normal;font-size:120px;line-height:125%;font-family:'Open Sans';-inkscape-font-specification:'Open Sans Bold';fill:#80b911;fill-opacity:1"
           id="path5216" />
        <path
           d="m 1256.3047,594.30654 0,-85.66406 18.1641,0 0,70.66406 34.746,0 0,15 -52.9101,0 z"
           style="font-style:normal;font-variant:normal;font-weight:bold;font-stretch:normal;font-size:120px;line-height:125%;font-family:'Open Sans';-inkscape-font-specification:'Open Sans Bold';fill:#80b911;fill-opacity:1"
           id="path5218" />
        <path
           d="m 1376.4805,594.30654 -6.211,-20.39062 -31.2304,0 -6.211,20.39062 -19.5703,0 30.2344,-86.01562 22.207,0 30.3516,86.01562 -19.5703,0 z m -10.5469,-35.625 q -8.6133,-27.71484 -9.7266,-31.34766 -1.0547,-3.63281 -1.5234,-5.74218 -1.9336,7.5 -11.0742,37.08984 l 22.3242,0 z"
           style="font-style:normal;font-variant:normal;font-weight:bold;font-stretch:normal;font-size:120px;line-height:125%;font-family:'Open Sans';-inkscape-font-specification:'Open Sans Bold';fill:#80b911;fill-opacity:1"
           id="path5220" />
        <path
           d="m 1437.9453,508.64248 26.6602,0 q 18.2226,0 26.4258,5.21484 8.2617,5.15625 8.2617,16.46485 0,7.67578 -3.6328,12.59765 -3.5743,4.92188 -9.5508,5.91797 l 0,0.58594 q 8.1445,1.8164 11.7187,6.79687 3.6328,4.98047 3.6328,13.24219 0,11.71875 -8.4961,18.28125 -8.4375,6.5625 -22.9687,6.5625 l -32.0508,0 0,-85.66406 z m 18.1641,33.92578 10.5469,0 q 7.3828,0 10.664,-2.28516 3.3399,-2.28515 3.3399,-7.55859 0,-4.92188 -3.6329,-7.03125 -3.5742,-2.16797 -11.3671,-2.16797 l -9.5508,0 0,19.04297 z m 0,14.41406 0,22.32422 11.8359,0 q 7.5,0 11.0742,-2.87109 3.5743,-2.8711 3.5743,-8.78907 0,-10.66406 -15.2344,-10.66406 l -11.25,0 z"
           style="font-style:normal;font-variant:normal;font-weight:bold;font-stretch:normal;font-size:120px;line-height:125%;font-family:'Open Sans';-inkscape-font-specification:'Open Sans Bold';fill:#80b911;fill-opacity:1"
           id="path5222" />
        <path
           d="m 1536.7344,546.66982 5.8594,0 q 8.6132,0 12.7148,-2.87109 4.1016,-2.8711 4.1016,-9.02344 0,-6.09375 -4.2188,-8.67187 -4.1601,-2.57813 -12.9492,-2.57813 l -5.5078,0 0,23.14453 z m 0,14.76563 0,32.87109 -18.1641,0 0,-85.66406 24.961,0 q 17.4609,0 25.8398,6.38672 8.3789,6.32812 8.3789,19.27734 0,7.55859 -4.1602,13.47656 -4.1601,5.85938 -11.7773,9.19922 19.3359,28.88672 25.1953,37.32422 l -20.1562,0 -20.4493,-32.87109 -9.6679,0 z"
           style="font-style:normal;font-variant:normal;font-weight:bold;font-stretch:normal;font-size:120px;line-height:125%;font-family:'Open Sans';-inkscape-font-specification:'Open Sans Bold';fill:#80b911;fill-opacity:1"
           id="path5224" />
        <path
           d="m 1673.7852,594.30654 -23.086,0 -37.2656,-64.80469 -0.5273,0 q 1.1132,17.16797 1.1132,24.49219 l 0,40.3125 -16.2304,0 0,-85.66406 22.9101,0 37.2071,64.16015 0.4101,0 q -0.8789,-16.69921 -0.8789,-23.61328 l 0,-40.54687 16.3477,0 0,85.66406 z"
           style="font-style:normal;font-variant:normal;font-weight:bold;font-stretch:normal;font-size:120px;line-height:125%;font-family:'Open Sans';-inkscape-font-specification:'Open Sans Bold';fill:#80b911;fill-opacity:1"
           id="path5226" />
        <path
           d="m 1773.043,551.35732 q 0,21.26953 -10.5469,32.69531 -10.5469,11.42579 -30.2344,11.42579 -19.6875,0 -30.2344,-11.42579 -10.5468,-11.42578 -10.5468,-32.8125 0,-21.38671 10.5468,-32.63671 10.6055,-11.3086 30.3516,-11.3086 19.7461,0 30.1758,11.36719 10.4883,11.36719 10.4883,32.69531 z m -62.5196,0 q 0,14.35547 5.4493,21.6211 5.4492,7.26562 16.289,7.26562 21.7383,0 21.7383,-28.88672 0,-28.94531 -21.6211,-28.94531 -10.8398,0 -16.3476,7.32422 -5.5079,7.26562 -5.5079,21.62109 z"
           style="font-style:normal;font-variant:normal;font-weight:bold;font-stretch:normal;font-size:120px;line-height:125%;font-family:'Open Sans';-inkscape-font-specification:'Open Sans Bold';fill:#80b911;fill-opacity:1"
           id="path5228" />
        <path
           d="m 1807.0273,581.70888 q -3.0468,11.83594 -10.3125,28.06641 l -12.8906,0 q 3.8086,-15.58594 5.918,-29.41406 l 16.4062,0 0.8789,1.34765 z"
           style="font-style:normal;font-variant:normal;font-weight:bold;font-stretch:normal;font-size:120px;line-height:125%;font-family:'Open Sans';-inkscape-font-specification:'Open Sans Bold';fill:#80b911;fill-opacity:1"
           id="path5230" />
        <path
           d="m 445.25,744.30654 -18.10547,0 0,-36.97266 -33.92578,0 0,36.97266 -18.16406,0 0,-85.66406 18.16406,0 0,33.57422 33.92578,0 0,-33.57422 18.10547,0 0,85.66406 z"
           style="font-style:normal;font-variant:normal;font-weight:bold;font-stretch:normal;font-size:120px;line-height:125%;font-family:'Open Sans';-inkscape-font-specification:'Open Sans Bold';fill:#80b911;fill-opacity:1"
           id="path5232" />
        <path
           d="m 485.09375,696.66982 5.85937,0 q 8.61329,0 12.71485,-2.87109 4.10156,-2.8711 4.10156,-9.02344 0,-6.09375 -4.21875,-8.67187 -4.16016,-2.57813 -12.94922,-2.57813 l -5.50781,0 0,23.14453 z m 0,14.76563 0,32.87109 -18.16406,0 0,-85.66406 24.96093,0 q 17.46094,0 25.83985,6.38672 8.3789,6.32812 8.3789,19.27734 0,7.55859 -4.16015,13.47656 -4.16016,5.85938 -11.77735,9.19922 19.33594,28.88672 25.19532,37.32422 l -20.15625,0 -20.44922,-32.87109 -9.66797,0 z"
           style="font-style:normal;font-variant:normal;font-weight:bold;font-stretch:normal;font-size:120px;line-height:125%;font-family:'Open Sans';-inkscape-font-specification:'Open Sans Bold';fill:#80b911;fill-opacity:1"
           id="path5234" />
        <path
           d="m 623.90234,701.35732 q 0,21.26953 -10.54687,32.69531 -10.54688,11.42579 -30.23438,11.42579 -19.6875,0 -30.23437,-11.42579 -10.54688,-11.42578 -10.54688,-32.8125 0,-21.38671 10.54688,-32.63671 10.60547,-11.3086 30.35156,-11.3086 19.74609,0 30.17578,11.36719 10.48828,11.36719 10.48828,32.69531 z m -62.51953,0 q 0,14.35547 5.44922,21.6211 5.44922,7.26562 16.28906,7.26562 21.73828,0 21.73828,-28.88672 0,-28.94531 -21.62109,-28.94531 -10.83984,0 -16.34766,7.32422 -5.50781,7.26562 -5.50781,21.62109 z"
           style="font-style:normal;font-variant:normal;font-weight:bold;font-stretch:normal;font-size:120px;line-height:125%;font-family:'Open Sans';-inkscape-font-specification:'Open Sans Bold';fill:#80b911;fill-opacity:1"
           id="path5236" />
        <path
           d="m 697.61328,744.30654 -63.75,0 0,-11.77734 41.07422,-58.88672 -39.96094,0 0,-15 61.52344,0 0,11.71875 -41.01563,58.94531 42.12891,0 0,15 z"
           style="font-style:normal;font-variant:normal;font-weight:bold;font-stretch:normal;font-size:120px;line-height:125%;font-family:'Open Sans';-inkscape-font-specification:'Open Sans Bold';fill:#80b911;fill-opacity:1"
           id="path5238" />
        <path
           d="m 787.37891,744.30654 -23.08594,0 -37.26563,-64.80469 -0.52734,0 q 1.11328,17.16797 1.11328,24.49219 l 0,40.3125 -16.23047,0 0,-85.66406 22.91016,0 37.20703,64.16015 0.41016,0 q -0.87891,-16.69921 -0.87891,-23.61328 l 0,-40.54687 16.34766,0 0,85.66406 z"
           style="font-style:normal;font-variant:normal;font-weight:bold;font-stretch:normal;font-size:120px;line-height:125%;font-family:'Open Sans';-inkscape-font-specification:'Open Sans Bold';fill:#80b911;fill-opacity:1"
           id="path5240" />
        <path
           d="m 886.63672,701.35732 q 0,21.26953 -10.54688,32.69531 -10.54687,11.42579 -30.23437,11.42579 -19.6875,0 -30.23438,-11.42579 -10.54687,-11.42578 -10.54687,-32.8125 0,-21.38671 10.54687,-32.63671 10.60547,-11.3086 30.35157,-11.3086 19.74609,0 30.17578,11.36719 10.48828,11.36719 10.48828,32.69531 z m -62.51953,0 q 0,14.35547 5.44922,21.6211 5.44921,7.26562 16.28906,7.26562 21.73828,0 21.73828,-28.88672 0,-28.94531 -21.62109,-28.94531 -10.83985,0 -16.34766,7.32422 -5.50781,7.26562 -5.50781,21.62109 z"
           style="font-style:normal;font-variant:normal;font-weight:bold;font-stretch:normal;font-size:120px;line-height:125%;font-family:'Open Sans';-inkscape-font-specification:'Open Sans Bold';fill:#80b911;fill-opacity:1"
           id="path5242" />
        <path
           d="m 953.375,658.64248 18.33984,0 -29.12109,85.66406 -19.80469,0 -29.0625,-85.66406 18.33985,0 16.11328,50.97656 q 1.34765,4.51172 2.7539,10.54688 1.46485,5.97656 1.81641,8.32031 0.64453,-5.39063 4.39453,-18.86719 L 953.375,658.64248 Z"
           style="font-style:normal;font-variant:normal;font-weight:bold;font-stretch:normal;font-size:120px;line-height:125%;font-family:'Open Sans';-inkscape-font-specification:'Open Sans Bold';fill:#80b911;fill-opacity:1"
           id="path5244" />
        <path
           d="m 1034.9961,744.30654 -6.2109,-20.39062 -31.23051,0 -6.21094,20.39062 -19.57031,0 30.23436,-86.01562 22.207,0 30.3516,86.01562 -19.5703,0 z m -10.5469,-35.625 q -8.6133,-27.71484 -9.7265,-31.34766 -1.0547,-3.63281 -1.5235,-5.74218 -1.9336,7.5 -11.0742,37.08984 l 22.3242,0 z m -20.9765,-56.89453 0,-1.58203 q 10.0781,-11.71875 13.7695,-17.63672 l 20.0391,0 0,1.23047 q -3.0469,3.04687 -10.4297,9.08203 -7.3243,5.97656 -11.4844,8.90625 l -11.8945,0 z"
           style="font-style:normal;font-variant:normal;font-weight:bold;font-stretch:normal;font-size:120px;line-height:125%;font-family:'Open Sans';-inkscape-font-specification:'Open Sans Bold';fill:#80b911;fill-opacity:1"
           id="path5246" />
        <path
           d="m 1135.25,744.30654 -18.1055,0 0,-49.57031 0.1758,-8.14453 0.293,-8.90625 q -4.5117,4.51172 -6.2695,5.91797 l -9.8438,7.91015 -8.7305,-10.89844 27.5977,-21.97265 14.8828,0 0,85.66406 z"
           style="font-style:normal;font-variant:normal;font-weight:bold;font-stretch:normal;font-size:120px;line-height:125%;font-family:'Open Sans';-inkscape-font-specification:'Open Sans Bold';fill:#80b911;fill-opacity:1"
           id="path5248" />
      </g>
    </g>
  </g>
</svg>
