<svg id="svg2" xmlns:inkscape="http://www.inkscape.org/namespaces/inkscape" xmlns:rdf="http://www.w3.org/1999/02/22-rdf-syntax-ns#" xmlns="http://www.w3.org/2000/svg" sodipodi:docname="logo-light.svg" viewBox="0 0 457.99998 100" height="100" width="458" version="1.1" xmlns:cc="http://creativecommons.org/ns#" xmlns:dc="http://purl.org/dc/elements/1.1/" inkscape:version="0.91 r13725" xmlns:sodipodi="http://sodipodi.sourceforge.net/DTD/sodipodi-0.dtd">
 <sodipodi:namedview id="namedview25" fit-margin-left="0" inkscape:zoom="1.7858313" borderopacity="1" inkscape:current-layer="svg2" inkscape:cx="208.41561" inkscape:guide-bbox="true" borderlayer="false" inkscape:window-maximized="1" showgrid="false" fit-margin-right="0" units="px" showguides="true" bordercolor="#666666" inkscape:window-x="0" guidetolerance="10" objecttolerance="10" inkscape:window-y="24" fit-margin-bottom="0" inkscape:window-width="1920" inkscape:pageopacity="0" inkscape:pageshadow="2" pagecolor="#ffffff" gridtolerance="10" inkscape:cy="45.227122" inkscape:window-height="1056" fit-margin-top="0"/>
 <rect id="rect4185" height="3037.2" width="3037.2" y="561.16" x="-2391.9" fill="#0098d0"/>
 <rect id="rect4538" opacity="0" height="407.83" width="1488.4" y="939.37" x="-1283.8"/>
 <path id="path4207" d="m-1703.9 120.26c0 70.071-29.882 100.51-100.51 100.51-70.631 0-100.51-29.88-100.51-100.51 0-70.633 30.442-100.51 100.51-100.51 70.071 0 100.51 30.442 100.51 100.51z" sodipodi:nodetypes="zzzzz" inkscape:connector-curvature="0" fill="#808080"/>
 <g id="g4146" transform="translate(-1687.7 964.96)">
  <flowRoot id="flowRoot4564" style="word-spacing:0px;letter-spacing:0px" xml:space="preserve" transform="translate(52.32 -447.6)" line-height="125%" font-size="40px" font-family="sans-serif" fill="#ffffff"><flowRegion id="flowRegion4566"><rect id="rect4568" height="303.56" width="1472.8" y="476.58" x="364.27" fill="#fff"/></flowRegion><flowPara id="flowPara4570" font-weight="bold" font-size="120px" line-height="125%" font-family="&apos;Open Sans&apos;" fill="#ffffff">Základní škola Brno,</flowPara><flowPara id="flowPara4572" font-weight="bold" font-size="120px" line-height="125%" font-family="&apos;Open Sans&apos;" fill="#ffffff">Hroznová 1</flowPara></flowRoot>
  <path id="path4210" d="m176.33 0c-59.97 0-119.93 11.28-142.49 33.84-45.119 45.119-45.119 239.86 0 284.98 45.119 45.119 239.86 45.119 284.97 0 45.119-45.119 45.119-239.86 0-284.98-22.56-22.56-82.52-33.84-142.48-33.84zm-29.844 69.695a28.658 28.658 0 0 1 28.658 28.658 28.658 28.658 0 0 1 -28.658 28.658 28.658 28.658 0 0 1 -28.658 -28.658 28.658 28.658 0 0 1 28.658 -28.658zm67.43 0a28.658 28.658 0 0 1 28.658 28.658 28.658 28.658 0 0 1 -28.658 28.658 28.658 28.658 0 0 1 -28.658 -28.658 28.658 28.658 0 0 1 28.658 -28.658zm-101.15 57.315a28.658 28.658 0 0 1 28.658 28.658 28.658 28.658 0 0 1 -28.658 28.658 28.658 28.658 0 0 1 -28.658 -28.658 28.658 28.658 0 0 1 28.658 -28.658zm67.43 0a28.658 28.658 0 0 1 28.658 28.658 28.658 28.658 0 0 1 -28.658 28.658 28.658 28.658 0 0 1 -28.658 -28.658 28.658 28.658 0 0 1 28.658 -28.658zm-33.715 57.316a28.658 28.658 0 0 1 28.658 28.658 28.658 28.658 0 0 1 -28.658 28.658 28.658 28.658 0 0 1 -28.658 -28.658 28.658 28.658 0 0 1 28.658 -28.658zm67.43 0a28.658 28.658 0 0 1 28.658 28.658 28.658 28.658 0 0 1 -28.658 28.658 28.658 28.658 0 0 1 -28.658 -28.658 28.658 28.658 0 0 1 28.658 -28.658zm-33.715 57.316a28.658 28.658 0 0 1 28.658 28.658 28.658 28.658 0 0 1 -28.658 28.658 28.658 28.658 0 0 1 -28.658 -28.658 28.658 28.658 0 0 1 28.658 -28.658z" inkscape:connector-curvature="0" fill="#fff"/>
 </g>
 <g>
  <path id="path4236" d="m-2034.2-21.702c45.119 45.119 45.119 239.86 0 284.98-45.119 45.119-239.86 45.119-284.98 0-45.119-45.119-45.119-239.86 0-284.98 45.119-45.119 239.86-45.119 284.98 0z" sodipodi:nodetypes="zzzzz" inkscape:connector-curvature="0" fill="#999"/>
  <path id="path4238" d="m-1510.2 219.24a28.658 28.658 0 0 1 -28.658 28.658 28.658 28.658 0 0 1 -28.658 -28.658 28.658 28.658 0 0 1 28.658 -28.658 28.658 28.658 0 0 1 28.658 28.658zm33.715-57.316a28.658 28.658 0 0 1 -28.658 28.658 28.658 28.658 0 0 1 -28.658 -28.658 28.658 28.658 0 0 1 28.658 -28.658 28.658 28.658 0 0 1 28.658 28.658zm-67.431 0a28.658 28.658 0 0 1 -28.658 28.658 28.658 28.658 0 0 1 -28.658 -28.658 28.658 28.658 0 0 1 28.658 -28.658 28.658 28.658 0 0 1 28.658 28.658zm33.715-57.316a28.658 28.658 0 0 1 -28.658 28.658 28.658 28.658 0 0 1 -28.658 -28.658 28.658 28.658 0 0 1 28.658 -28.658 28.658 28.658 0 0 1 28.658 28.658zm-67.431 0a28.658 28.658 0 0 1 -28.658 28.658 28.658 28.658 0 0 1 -28.658 -28.658 28.658 28.658 0 0 1 28.658 -28.658 28.658 28.658 0 0 1 28.658 28.658zm101.15-57.316a28.658 28.658 0 0 1 -28.658 28.658 28.658 28.658 0 0 1 -28.658 -28.658 28.658 28.658 0 0 1 28.658 -28.658 28.658 28.658 0 0 1 28.658 28.658zm-67.431 0a28.658 28.658 0 0 1 -28.658 28.658 28.658 28.658 0 0 1 -28.658 -28.658 28.658 28.658 0 0 1 28.658 -28.658 28.658 28.658 0 0 1 28.658 28.658z" fill-rule="evenodd" inkscape:connector-curvature="0" fill="#ccc"/>
  <flowRoot id="flowRoot4156" style="word-spacing:0px;letter-spacing:0px" xml:space="preserve" transform="translate(-1635.4 1417.4)" line-height="125%" font-size="40px" font-family="sans-serif" fill="#ffffff"><flowRegion id="flowRegion4158"><rect id="rect4160" height="303.56" width="1472.8" y="476.58" x="364.27" fill="#fff"/></flowRegion><flowPara id="flowPara4162" font-weight="bold" font-size="120px" line-height="125%" font-family="&apos;Open Sans&apos;" fill="#ffffff">Základní škola Brno,</flowPara><flowPara id="flowPara4164" font-weight="bold" font-size="120px" line-height="125%" font-family="&apos;Open Sans&apos;" fill="#ffffff">Hroznová 1</flowPara></flowRoot>
  <path id="rect4174" d="m-1623.6 1841.5c-0.2477 13.191 14.727 12 14.727 12h256.39c6.8249 0 12.319 5.4943 12.319 12.319v333.3c0 6.8248-5.4943 12.319-12.319 12.319h-256.39s-14.167 0.8791-14.727-12z" sodipodi:nodetypes="ccssssccc" inkscape:connector-curvature="0" fill="#fff"/>
 </g>
 <path id="path4177" d="m-1613.7 1834.7 192.63-60.756s5.5996-1.6798 7.2795 1.12 1.6799 7.5595 1.6799 7.5595v51.963z" fill-rule="evenodd" sodipodi:nodetypes="ccsccc" inkscape:connector-curvature="0" fill="#fff"/>
 <path id="path4154" d="m-1447.5 2121a28.658 28.658 0 0 1 -28.658 28.658 28.658 28.658 0 0 1 -28.658 -28.658 28.658 28.658 0 0 1 28.658 -28.658 28.658 28.658 0 0 1 28.658 28.658zm33.715-57.316a28.658 28.658 0 0 1 -28.658 28.658 28.658 28.658 0 0 1 -28.658 -28.658 28.658 28.658 0 0 1 28.658 -28.658 28.658 28.658 0 0 1 28.658 28.658zm-67.431 0a28.658 28.658 0 0 1 -28.658 28.658 28.658 28.658 0 0 1 -28.658 -28.658 28.658 28.658 0 0 1 28.658 -28.658 28.658 28.658 0 0 1 28.658 28.658zm33.715-57.316a28.658 28.658 0 0 1 -28.658 28.658 28.658 28.658 0 0 1 -28.658 -28.658 28.658 28.658 0 0 1 28.658 -28.658 28.658 28.658 0 0 1 28.658 28.658zm-67.431 0a28.658 28.658 0 0 1 -28.658 28.658 28.658 28.658 0 0 1 -28.658 -28.658 28.658 28.658 0 0 1 28.658 -28.658 28.658 28.658 0 0 1 28.658 28.658zm101.15-57.316a28.658 28.658 0 0 1 -28.658 28.658 28.658 28.658 0 0 1 -28.658 -28.658 28.658 28.658 0 0 1 28.658 -28.658 28.658 28.658 0 0 1 28.658 28.658zm-67.431 0a28.658 28.658 0 0 1 -28.658 28.658 28.658 28.658 0 0 1 -28.658 -28.658 28.658 28.658 0 0 1 28.658 -28.658 28.658 28.658 0 0 1 28.658 28.658z" fill-rule="evenodd" inkscape:connector-curvature="0" fill="#0098d0"/>
 <g id="g4301" fill="#fff">
  <path id="path4189" d="m135.72 42.157h-17.905v-3.3078l11.536-16.539h-11.224v-4.2129h17.28v3.2914l-11.52 16.556h11.832v4.2129z" inkscape:connector-curvature="0"/>
  <path id="path4191" d="m150.87 42.157-0.97095-2.5014h-0.13165q-1.2672 1.5963-2.6166 2.2217-1.333 0.6089-3.4888 0.6089-2.6496 0-4.18-1.514-1.514-1.514-1.514-4.3117 0-2.9293 2.0406-4.3117 2.0571-1.3988 6.1878-1.5469l3.1926-0.09874v-0.80638q0-2.7977-2.8635-2.7977-2.2052 0-5.1839 1.333l-1.6621-3.3901q3.1762-1.6621 7.0435-1.6621 3.7028 0 5.6776 1.6128t1.9748 4.9041v12.26h-3.5053zm-1.4811-8.5246-1.9419 0.06583q-2.1888 0.06583-3.2584 0.78993-1.0697 0.7241-1.0697 2.2052 0 2.1229 2.4356 2.1229 1.7444 0 2.7812-1.0039 1.0532-1.0039 1.0532-2.666v-1.514zm-5.5789-11.898v-0.44433q2.8306-3.2914 3.8674-4.9535h5.6282v0.34559q-0.85575 0.85575-2.9293 2.5508-2.0571 1.6786-3.2255 2.5014h-3.3407z" inkscape:connector-curvature="0"/>
  <path id="path4193" d="m164.35 32.151 2.1888-2.7977 5.151-5.5953h5.6612l-7.3068 7.9816 7.7512 10.417h-5.7928l-5.2991-7.4549-2.1558 1.728v5.727h-5.0193v-25.607h5.0193v11.421l-0.26331 4.18h0.0658z" inkscape:connector-curvature="0"/>
  <path id="path4195" d="m185.48 42.157h-5.0193v-25.607h5.0193v25.607z" inkscape:connector-curvature="0"/>
  <path id="path4197" d="m202.42 42.157-0.97095-2.5014h-0.13166q-1.2672 1.5963-2.6166 2.2217-1.333 0.6089-3.4888 0.6089-2.6496 0-4.18-1.514-1.514-1.514-1.514-4.3117 0-2.9293 2.0406-4.3117 2.0571-1.3988 6.1878-1.5469l3.1926-0.09874v-0.80638q0-2.7977-2.8635-2.7977-2.2052 0-5.1839 1.333l-1.66-3.39q3.1762-1.6621 7.0435-1.6621 3.7028 0 5.6776 1.6128t1.9748 4.9041v12.26h-3.5053zm-1.4811-8.5246-1.9419 0.06583q-2.1888 0.06583-3.2584 0.78993-1.0697 0.7241-1.0697 2.2052 0 2.1229 2.4356 2.1229 1.7444 0 2.7812-1.0039 1.0532-1.0039 1.0532-2.666v-1.514z" inkscape:connector-curvature="0"/>
  <path id="path4199" d="m216.9 42.486q-3.242 0-5.1016-2.5179-1.8432-2.5179-1.8432-6.9777 0-4.5256 1.8761-7.0435 1.8925-2.5344 5.2004-2.5344 3.4724 0 5.2991 2.6989h0.16456q-0.3785-2.0571-0.3785-3.6699v-5.8915h5.0358v25.607h-3.8509l-0.97095-2.3862h-0.21394q-1.7115 2.7154-5.2168 2.7154zm1.7609-3.999q1.9254 0 2.8141-1.1191 0.90513-1.1191 0.98741-3.8015v-0.54307q0-2.9622-0.92158-4.2459-0.90513-1.2836-2.9622-1.2836-1.6786 0-2.6166 1.4317-0.92158 1.4153-0.92158 4.1307t0.93804 4.0813q0.93803 1.3495 2.6825 1.3495z" inkscape:connector-curvature="0"/>
  <path id="path4201" d="m249.38 42.157h-5.0193v-10.746q0-1.9913-0.70765-2.9787-0.70764-1.0039-2.2546-1.0039-2.1065 0-3.0445 1.4153-0.93804 1.3988-0.93804 4.6573v8.6563h-5.0193v-18.399h3.8344l0.67473 2.3533h0.27976q0.8393-1.333 2.304-2.0077 1.4811-0.69119 3.3572-0.69119 3.2091 0 4.8712 1.7444 1.6621 1.728 1.6621 5.0029v11.997z" inkscape:connector-curvature="0"/>
  <path id="path4203" d="m259.6 42.157h-5.0193v-18.399h5.0193v18.399zm-5.2662-20.423v-0.44433q2.8306-3.2914 3.8674-4.9535h5.6282v0.34559q-0.85575 0.85575-2.9293 2.5508-2.0571 1.6786-3.2255 2.5014h-3.3407z" inkscape:connector-curvature="0"/>
  <path id="path4205" d="m286.45 36.693q0 2.8306-1.9748 4.3117-1.9584 1.4811-5.8751 1.4811-2.0077 0-3.423-0.27977-1.4153-0.26331-2.6496-0.78993v-4.1471q1.3988 0.65827 3.1432 1.1026 1.7609 0.44433 3.0939 0.44433 2.7318 0 2.7318-1.5799 0-0.59245-0.36205-0.9545-0.36205-0.3785-1.2507-0.8393-0.88867-0.47725-2.3698-1.1026-2.1229-0.88867-3.1268-1.6457-0.98741-0.75701-1.4482-1.728-0.44433-0.98741-0.44433-2.4192 0-2.4521 1.8925-3.7851 1.909-1.3495 5.3978-1.3495 3.3243 0 6.4675 1.4482l-1.514 3.6205q-1.3824-0.59244-2.5837-0.97095-1.2014-0.3785-2.4521-0.3785-2.2217 0-2.2217 1.2013 0 0.67473 0.70764 1.1684 0.72411 0.4937 3.1433 1.4647 2.1558 0.87221 3.1597 1.6292 1.0039 0.75701 1.4811 1.7444 0.47725 0.98741 0.47725 2.3533zm0.52662-20.357v0.44433q-1.3824 1.3824-2.5508 2.7647-1.152 1.3659-1.6621 2.1888h-5.8751q-0.47725-0.77347-1.3659-1.8432-0.88867-1.0862-2.847-3.1103v-0.44433h3.3407q2.4192 1.5305 3.7686 2.8964 1.3824-1.4317 3.8509-2.8964h3.3407z" inkscape:connector-curvature="0"/>
  <path id="path4208" d="m295.22 32.151 2.1888-2.7977 5.151-5.5953h5.6611l-7.3068 7.9816 7.7512 10.417h-5.7928l-5.2991-7.4549-2.1559 1.728v5.727h-5.0193v-25.607h5.0193v11.421l-0.26331 4.18h0.0658z" inkscape:connector-curvature="0"/>
  <path id="path4211" d="m315.33 32.925q0 2.7318 0.88868 4.1307 0.90511 1.3988 2.9293 1.3988 2.0077 0 2.88-1.3824 0.88865-1.3988 0.88865-4.1471 0-2.7318-0.88865-4.0977-0.88868-1.3659-2.9129-1.3659-2.0078 0-2.8964 1.3659-0.88868 1.3495-0.88868 4.0977zm12.721 0q0 4.4927-2.3698 7.0271t-6.5992 2.5344q-2.6496 0-4.6737-1.152-2.0242-1.1684-3.1103-3.3407-1.0862-2.1723-1.0862-5.0687 0-4.5092 2.3533-7.0106t6.6156-2.5014q2.6496 0 4.6737 1.152 2.0242 1.152 3.1103 3.3078 1.0862 2.1558 1.0862 5.0522z" inkscape:connector-curvature="0"/>
  <path id="path4213" d="m337.21 42.157h-5.0193v-25.607h5.0193v25.607z" inkscape:connector-curvature="0"/>
  <path id="path4215" d="m354.15 42.157-0.97097-2.5014h-0.13164q-1.2672 1.5963-2.6166 2.2217-1.333 0.6089-3.4888 0.6089-2.6496 0-4.18-1.514-1.514-1.514-1.514-4.3117 0-2.9293 2.0406-4.3117 2.0571-1.3988 6.1878-1.5469l3.1926-0.09874v-0.80638q0-2.7977-2.8635-2.7977-2.2052 0-5.1839 1.333l-1.6622-3.3901q3.1762-1.6621 7.0435-1.6621 3.7028 0 5.6776 1.6128t1.9748 4.9041v12.26h-3.5053zm-1.4811-8.5246-1.9419 0.06583q-2.1888 0.06583-3.2585 0.78993t-1.0697 2.2052q0 2.1229 2.4356 2.1229 1.7444 0 2.7812-1.0039 1.0532-1.0039 1.0532-2.666v-1.514z" inkscape:connector-curvature="0"/>
  <path id="path4217" d="m371.95 18.097h7.4879q5.1181 0 7.422 1.4647 2.3204 1.4482 2.3204 4.6244 0 2.1558-1.0203 3.5382-1.0039 1.3824-2.6825 1.6621v0.16457q2.2875 0.51016 3.2914 1.909 1.0203 1.3988 1.0203 3.7192 0 3.2914-2.3862 5.1345-2.3698 1.8432-6.4511 1.8432h-9.0019v-24.06zm5.1016 9.5285h2.9622q2.0736 0 2.9951-0.64182 0.93805-0.64181 0.93805-2.1229 0-1.3824-1.0203-1.9748-1.0039-0.6089-3.1926-0.6089h-2.6825v5.3485zm0 4.0484v6.27h3.3243q2.1065 0 3.1103-0.80638 1.0039-0.80638 1.0039-2.4685 0-2.9951-4.2788-2.9951h-3.1597z" inkscape:connector-curvature="0"/>
  <path id="path4219" d="m404.47 23.413q1.0203 0 1.695 0.14811l-0.37 4.707q-0.60891-0.16457-1.4811-0.16457-2.4027 0-3.7521 1.2343-1.333 1.2343-1.333 3.4559v9.3639h-5.0193v-18.399h3.8015l0.74055 3.0939h0.24685q0.85576-1.5469 2.304-2.485 1.4646-0.9545 3.1762-0.9545z" inkscape:connector-curvature="0"/>
  <path id="path4221" d="m426.53 42.157h-5.0193v-10.746q0-1.9913-0.70763-2.9787-0.70766-1.0039-2.2546-1.0039-2.1065 0-3.0445 1.4153-0.93806 1.3988-0.93806 4.6573v8.6563h-5.0193v-18.399h3.8345l0.67472 2.3533h0.27976q0.83931-1.333 2.304-2.0077 1.4811-0.69119 3.3572-0.69119 3.2091 0 4.8712 1.7444 1.6621 1.728 1.6621 5.0029v11.997z" inkscape:connector-curvature="0"/>
  <path id="path4223" d="m435.72 32.925q0 2.7318 0.88868 4.1307 0.90511 1.3988 2.9293 1.3988 2.0078 0 2.88-1.3824 0.88865-1.3988 0.88865-4.1471 0-2.7318-0.88865-4.0977-0.88868-1.3659-2.9129-1.3659-2.0078 0-2.8964 1.3659-0.88868 1.3495-0.88868 4.0977zm12.721 0q0 4.4927-2.3698 7.0271t-6.5992 2.5344q-2.6496 0-4.6738-1.152-2.0242-1.1684-3.1103-3.3407-1.0862-2.1723-1.0862-5.0687 0-4.5092 2.3533-7.0106 2.3534-2.5014 6.6156-2.5014 2.6496 0 4.6738 1.152t3.1103 3.3078q1.0862 2.1558 1.0862 5.0522z" inkscape:connector-curvature="0"/>
  <path id="path4225" d="m457.51 38.619q-0.85576 3.3243-2.8964 7.8828h-3.6205q1.0697-4.3775 1.6622-8.2613h4.6079l0.24685 0.3785z" inkscape:connector-curvature="0"/>
  <path id="path4227" d="m139.75 84.287h-5.0852v-10.384h-9.5285v10.384h-5.1016v-24.06h5.1016v9.4298h9.5285v-9.4298h5.0852v24.06z" inkscape:connector-curvature="0"/>
  <path id="path4229" d="m155.71 65.542q1.0203 0 1.695 0.14811l-0.3785 4.7067q-0.60891-0.16457-1.4811-0.16457-2.4027 0-3.7522 1.2343-1.333 1.2343-1.333 3.4559v9.3639h-5.0193v-18.399h3.8015l0.74056 3.0939h0.24685q0.85575-1.5469 2.304-2.485 1.4647-0.9545 3.1762-0.9545z" inkscape:connector-curvature="0"/>
  <path id="path4231" d="m164.78 75.054q0 2.7318 0.88867 4.1307 0.90512 1.3988 2.9293 1.3988 2.0077 0 2.8799-1.3824 0.88867-1.3988 0.88867-4.1471 0-2.7318-0.88867-4.0977t-2.9128-1.3659q-2.0077 0-2.8964 1.3659-0.88867 1.3495-0.88867 4.0977zm12.721 0q0 4.4927-2.3698 7.0271t-6.5992 2.5344q-2.6496 0-4.6737-1.152-2.0242-1.1684-3.1103-3.3407t-1.0861-5.0687q0-4.5092 2.3533-7.0106t6.6156-2.5014q2.6496 0 4.6737 1.152 2.0242 1.152 3.1103 3.3078 1.0862 2.1558 1.0862 5.0522z" inkscape:connector-curvature="0"/>
  <path id="path4233" d="m194.45 84.287h-14.531v-2.9622l8.5246-11.602h-8.0145v-3.8344h13.725v3.2584l-8.2942 11.306h8.5905v3.8344z" inkscape:connector-curvature="0"/>
  <path id="path4235" d="m215.09 84.287h-5.0193v-10.746q0-1.9913-0.70765-2.9787-0.70764-1.0039-2.2546-1.0039-2.1065 0-3.0445 1.4153-0.93804 1.3988-0.93804 4.6573v8.6563h-5.0193v-18.399h3.8344l0.67473 2.3533h0.27977q0.83929-1.333 2.304-2.0077 1.4811-0.69119 3.3572-0.69119 3.2091 0 4.8712 1.7444 1.6621 1.728 1.6621 5.0029v11.997z" inkscape:connector-curvature="0"/>
  <path id="path4237" d="m224.29 75.054q0 2.7318 0.88867 4.1307 0.90512 1.3988 2.9293 1.3988 2.0077 0 2.8799-1.3824 0.88867-1.3988 0.88867-4.1471 0-2.7318-0.88867-4.0977-0.88866-1.3659-2.9128-1.3659-2.0077 0-2.8964 1.3659-0.88867 1.3495-0.88867 4.0977zm12.721 0q0 4.4927-2.3698 7.0271t-6.5992 2.5344q-2.6496 0-4.6737-1.152-2.0242-1.1684-3.1103-3.3407-1.0862-2.1723-1.0862-5.0687 0-4.5092 2.3533-7.0106t6.6156-2.5014q2.6496 0 4.6737 1.152 2.0242 1.152 3.1103 3.3078 1.0862 2.1558 1.0862 5.0522z" inkscape:connector-curvature="0"/>
  <path id="path4239" d="m245.53 84.287-7.0106-18.399h5.2497l3.5547 10.483q0.59245 1.9913 0.74056 3.7686h0.0987q0.0823-1.5799 0.74056-3.7686l3.5382-10.483h5.2497l-7.0106 18.399h-5.151z" inkscape:connector-curvature="0"/>
  <path id="path4241" d="m272 84.287-0.97095-2.5014h-0.13166q-1.2672 1.5963-2.6166 2.2217-1.333 0.6089-3.4888 0.6089-2.6496 0-4.18-1.514-1.514-1.514-1.514-4.3117 0-2.9293 2.0406-4.3117 2.0571-1.3988 6.1878-1.5469l3.1926-0.09874v-0.80638q0-2.7977-2.8635-2.7977-2.2052 0-5.1839 1.333l-1.6621-3.3901q3.1762-1.6621 7.0435-1.6621 3.7028 0 5.6776 1.6128t1.9748 4.9041v12.26h-3.5053zm-1.4811-8.5246-1.9419 0.06583q-2.1888 0.06583-3.2584 0.78993-1.0697 0.7241-1.0697 2.2052 0 2.1229 2.4356 2.1229 1.7444 0 2.7812-1.0039 1.0532-1.0039 1.0532-2.666v-1.514zm-5.5789-11.898v-0.44433q2.8306-3.2914 3.8674-4.9535h5.6282v0.34559q-0.85575 0.85575-2.9293 2.5508-2.0571 1.6786-3.2255 2.5014h-3.3407z" inkscape:connector-curvature="0"/>
  <path id="path4243" d="m300.7 84.287h-5.0852v-13.922l0.0494-2.2875 0.0823-2.5014q-1.2672 1.2672-1.7609 1.6621l-2.7648 2.2217-2.4521-3.061 7.7512-6.1713h4.18v24.06z" inkscape:connector-curvature="0"/>
  <path id="path4167" d="m49.524 0.95203c-16.842 0-33.684 3.1682-40.02 9.5044-12.672 12.672-12.672 67.367 0 80.039s67.367 12.672 80.039 0 12.672-67.367 0-80.039c-6.336-6.3358-23.177-9.504-40.019-9.504zm-8.382 19.575a8.049 8.049 0 0 1 8.049 8.049 8.049 8.049 0 0 1 -8.049 8.049 8.049 8.049 0 0 1 -8.049 -8.049 8.049 8.049 0 0 1 8.049 -8.049zm18.939 0a8.049 8.049 0 0 1 8.049 8.049 8.049 8.049 0 0 1 -8.049 8.049 8.049 8.049 0 0 1 -8.049 -8.049 8.049 8.049 0 0 1 8.049 -8.049zm-28.408 16.098a8.049 8.049 0 0 1 8.049 8.049 8.049 8.049 0 0 1 -8.049 8.049 8.049 8.049 0 0 1 -8.049 -8.049 8.049 8.049 0 0 1 8.049 -8.049zm18.939 0a8.049 8.049 0 0 1 8.049 8.049 8.049 8.049 0 0 1 -8.049 8.049 8.049 8.049 0 0 1 -8.049 -8.049 8.049 8.049 0 0 1 8.049 -8.049zm-9.4693 16.098a8.049 8.049 0 0 1 8.049 8.049 8.049 8.049 0 0 1 -8.049 8.049 8.049 8.049 0 0 1 -8.049 -8.049 8.049 8.049 0 0 1 8.049 -8.049zm18.939 0a8.049 8.049 0 0 1 8.049 8.049 8.049 8.049 0 0 1 -8.049 8.049 8.049 8.049 0 0 1 -8.049 -8.049 8.049 8.049 0 0 1 8.049 -8.049zm-9.4693 16.098a8.049 8.049 0 0 1 8.049 8.049 8.049 8.049 0 0 1 -8.049 8.049 8.049 8.049 0 0 1 -8.049 -8.049 8.049 8.049 0 0 1 8.049 -8.049z" inkscape:connector-curvature="0"/>
 </g>
</svg>
