<?xml version="1.0" encoding="UTF-8" standalone="no"?>
<!-- Created with Inkscape (http://www.inkscape.org/) -->

<svg
   xmlns:dc="http://purl.org/dc/elements/1.1/"
   xmlns:cc="http://creativecommons.org/ns#"
   xmlns:rdf="http://www.w3.org/1999/02/22-rdf-syntax-ns#"
   xmlns:svg="http://www.w3.org/2000/svg"
   xmlns="http://www.w3.org/2000/svg"
   xmlns:sodipodi="http://sodipodi.sourceforge.net/DTD/sodipodi-0.dtd"
   xmlns:inkscape="http://www.inkscape.org/namespaces/inkscape"
   width="190"
   height="40"
   viewBox="0 0 189.99999 39.999998"
   id="svg2"
   version="1.1"
   inkscape:version="0.91 r13725"
   sodipodi:docname="logo-white.svg">
  <defs
     id="defs4" />
  <sodipodi:namedview
     id="base"
     pagecolor="#ffffff"
     bordercolor="#666666"
     borderopacity="1.0"
     inkscape:pageopacity="0.0"
     inkscape:pageshadow="2"
     inkscape:zoom="4.0000001"
     inkscape:cx="102.3386"
     inkscape:cy="27.681675"
     inkscape:document-units="px"
     inkscape:current-layer="layer1"
     showgrid="false"
     showborder="true"
     showguides="true"
     inkscape:guide-bbox="true"
     inkscape:window-width="1920"
     inkscape:window-height="1056"
     inkscape:window-x="0"
     inkscape:window-y="24"
     inkscape:window-maximized="1"
     fit-margin-top="0"
     fit-margin-left="0"
     fit-margin-right="0"
     fit-margin-bottom="0"
     borderlayer="true"
     inkscape:showpageshadow="true"
     units="px" />
  <metadata
     id="metadata7">
    <rdf:RDF>
      <cc:Work
         rdf:about="">
        <dc:format>image/svg+xml</dc:format>
        <dc:type
           rdf:resource="http://purl.org/dc/dcmitype/StillImage" />
        <dc:title></dc:title>
      </cc:Work>
    </rdf:RDF>
  </metadata>
  <g
     inkscape:label="Layer 1"
     inkscape:groupmode="layer"
     id="layer1"
     transform="translate(-7982.9754,-10970.459)">
    <g
       id="g4954"
       transform="matrix(0.09221493,0,0,0.09221493,7246.8259,9993.5725)">
      <g
         transform="matrix(0.97564403,0,0,0.9756823,8026.8794,10146.627)"
         id="g4891"
         style="fill:#ffffff;fill-opacity:1">
        <g
           id="g4893"
           transform="translate(0,2)"
           style="fill:#ffffff;fill-opacity:1" />
        <g
           id="g4895"
           transform="translate(-60,0)"
           style="fill:#ffffff;fill-opacity:1" />
        <g
           id="g4897"
           style="fill:#ffffff;fill-opacity:1" />
        <g
           id="g4899"
           style="fill:#ffffff;fill-opacity:1">
          <circle
             style="fill:#ffffff;fill-opacity:1;fill-rule:evenodd;stroke:none;stroke-width:1px;stroke-linecap:butt;stroke-linejoin:miter;stroke-opacity:1"
             id="circle4901"
             cx="66"
             cy="526.36218"
             r="51"
             transform="translate(0,2)" />
          <circle
             r="51"
             cy="526.36218"
             cx="186"
             id="circle4903"
             style="fill:#ffffff;fill-opacity:1;fill-rule:evenodd;stroke:none;stroke-width:1px;stroke-linecap:butt;stroke-linejoin:miter;stroke-opacity:1"
             transform="translate(0,2)" />
          <circle
             r="51"
             cy="630.36218"
             cx="66"
             id="circle4905"
             style="fill:#ffffff;fill-opacity:1;fill-rule:evenodd;stroke:none;stroke-width:1px;stroke-linecap:butt;stroke-linejoin:miter;stroke-opacity:1"
             transform="translate(-60,0)" />
          <circle
             style="fill:#ffffff;fill-opacity:1;fill-rule:evenodd;stroke:none;stroke-width:1px;stroke-linecap:butt;stroke-linejoin:miter;stroke-opacity:1"
             id="circle4907"
             cx="186"
             cy="630.36218"
             r="51"
             transform="translate(-60,0)" />
          <circle
             style="fill:#ffffff;fill-opacity:1;fill-rule:evenodd;stroke:none;stroke-width:1px;stroke-linecap:butt;stroke-linejoin:miter;stroke-opacity:1"
             id="circle4909"
             cx="66"
             cy="732.36218"
             r="51" />
          <circle
             r="51"
             cy="732.36218"
             cx="186"
             id="circle4911"
             style="fill:#ffffff;fill-opacity:1;fill-rule:evenodd;stroke:none;stroke-width:1px;stroke-linecap:butt;stroke-linejoin:miter;stroke-opacity:1" />
          <circle
             r="51"
             cy="834.36218"
             cx="126"
             id="circle4913"
             style="fill:#ffffff;fill-opacity:1;fill-rule:evenodd;stroke:none;stroke-width:1px;stroke-linecap:butt;stroke-linejoin:miter;stroke-opacity:1" />
        </g>
      </g>
      <path
         d="m 8465.9128,10770.651 -87.7454,0 0,-16.211 56.5345,-81.055 -55.0021,0 0,-20.647 84.6807,0 0,16.131 -56.4538,81.135 57.9861,0 0,20.647 z"
         style="font-style:normal;font-variant:normal;font-weight:bold;font-stretch:normal;font-size:120px;line-height:125%;font-family:'Open Sans';-inkscape-font-specification:'Open Sans Bold';letter-spacing:0px;word-spacing:0px;fill:#ffffff;fill-opacity:1;stroke:none;stroke-width:1px;stroke-linecap:butt;stroke-linejoin:miter;stroke-opacity:1"
         id="path4873"
         inkscape:connector-curvature="0" />
      <path
         d="m 8540.19,10770.651 -4.7583,-12.259 -0.6452,0 q -6.2099,7.823 -12.8231,10.888 -6.5325,2.984 -17.0974,2.984 -12.9844,0 -20.4847,-7.42 -7.4196,-7.42 -7.4196,-21.131 0,-14.356 10.0004,-21.13 10.081,-6.856 30.3237,-7.582 l 15.6458,-0.484 0,-3.952 q 0,-13.71 -14.0328,-13.71 -10.8069,0 -25.4042,6.533 l -8.1455,-16.615 q 15.5651,-8.146 34.5175,-8.146 18.1459,0 27.8237,7.904 9.6778,7.904 9.6778,24.034 l 0,60.086 -17.1781,0 z m -7.2584,-41.778 -9.5165,0.323 q -10.7262,0.323 -15.9684,3.871 -5.2421,3.549 -5.2421,10.808 0,10.404 11.9359,10.404 8.5488,0 13.6296,-4.92 5.1615,-4.92 5.1615,-13.066 l 0,-7.42 z m -27.3398,-58.311 0,-2.177 q 13.8715,-16.131 18.9524,-24.276 l 27.5817,0 0,1.693 q -4.1937,4.194 -14.3554,12.501 -10.081,8.227 -15.8071,12.259 l -16.3716,0 z"
         style="font-style:normal;font-variant:normal;font-weight:bold;font-stretch:normal;font-size:120px;line-height:125%;font-family:'Open Sans';-inkscape-font-specification:'Open Sans Bold';letter-spacing:0px;word-spacing:0px;fill:#ffffff;fill-opacity:1;stroke:none;stroke-width:1px;stroke-linecap:butt;stroke-linejoin:miter;stroke-opacity:1"
         id="path4875"
         inkscape:connector-curvature="0" />
      <path
         d="m 8606.241,10721.615 10.7262,-13.711 25.2429,-27.422 27.7431,0 -35.8079,39.116 37.9854,51.053 -28.3883,0 -25.9687,-36.535 -10.565,8.468 0,28.067 -24.5977,0 0,-125.494 24.5977,0 0,55.972 -1.2903,20.486 0.3226,0 z"
         style="font-style:normal;font-variant:normal;font-weight:bold;font-stretch:normal;font-size:120px;line-height:125%;font-family:'Open Sans';-inkscape-font-specification:'Open Sans Bold';letter-spacing:0px;word-spacing:0px;fill:#ffffff;fill-opacity:1;stroke:none;stroke-width:1px;stroke-linecap:butt;stroke-linejoin:miter;stroke-opacity:1"
         id="path4877"
         inkscape:connector-curvature="0" />
      <path
         d="m 8709.7934,10770.651 -24.5977,0 0,-125.494 24.5977,0 0,125.494 z"
         style="font-style:normal;font-variant:normal;font-weight:bold;font-stretch:normal;font-size:120px;line-height:125%;font-family:'Open Sans';-inkscape-font-specification:'Open Sans Bold';letter-spacing:0px;word-spacing:0px;fill:#ffffff;fill-opacity:1;stroke:none;stroke-width:1px;stroke-linecap:butt;stroke-linejoin:miter;stroke-opacity:1"
         id="path4879"
         inkscape:connector-curvature="0" />
      <path
         d="m 8792.7806,10770.651 -4.7583,-12.259 -0.6452,0 q -6.2099,7.823 -12.823,10.888 -6.5326,2.984 -17.0975,2.984 -12.9844,0 -20.4847,-7.42 -7.4196,-7.42 -7.4196,-21.131 0,-14.356 10.0004,-21.13 10.081,-6.856 30.3237,-7.582 l 15.6458,-0.484 0,-3.952 q 0,-13.71 -14.0328,-13.71 -10.8069,0 -25.4042,6.533 l -8.1455,-16.615 q 15.5651,-8.146 34.5175,-8.146 18.1459,0 27.8237,7.904 9.6778,7.904 9.6778,24.034 l 0,60.086 -17.1781,0 z m -7.2584,-41.778 -9.5165,0.323 q -10.7262,0.323 -15.9683,3.871 -5.2422,3.549 -5.2422,10.808 0,10.404 11.936,10.404 8.5487,0 13.6295,-4.92 5.1615,-4.92 5.1615,-13.066 l 0,-7.42 z"
         style="font-style:normal;font-variant:normal;font-weight:bold;font-stretch:normal;font-size:120px;line-height:125%;font-family:'Open Sans';-inkscape-font-specification:'Open Sans Bold';letter-spacing:0px;word-spacing:0px;fill:#ffffff;fill-opacity:1;stroke:none;stroke-width:1px;stroke-linecap:butt;stroke-linejoin:miter;stroke-opacity:1"
         id="path4881"
         inkscape:connector-curvature="0" />
      <path
         d="m 8863.7511,10772.264 q -15.8877,0 -25.001,-12.34 -9.0326,-12.339 -9.0326,-34.196 0,-22.179 9.1939,-34.519 9.2746,-12.42 25.4849,-12.42 17.0168,0 25.9688,13.227 l 0.8065,0 q -1.855,-10.082 -1.855,-17.986 l 0,-28.873 24.6784,0 0,125.494 -18.8717,0 -4.7582,-11.695 -1.0485,0 q -8.3874,13.308 -25.5655,13.308 z m 8.6294,-19.598 q 9.4359,0 13.7909,-5.485 4.4356,-5.484 4.8389,-18.63 l 0,-2.662 q 0,-14.517 -4.5163,-20.808 -4.4357,-6.291 -14.5167,-6.291 -8.2262,0 -12.8231,7.017 -4.5163,6.936 -4.5163,20.244 0,13.307 4.5969,20.001 4.597,6.614 13.1457,6.614 z"
         style="font-style:normal;font-variant:normal;font-weight:bold;font-stretch:normal;font-size:120px;line-height:125%;font-family:'Open Sans';-inkscape-font-specification:'Open Sans Bold';letter-spacing:0px;word-spacing:0px;fill:#ffffff;fill-opacity:1;stroke:none;stroke-width:1px;stroke-linecap:butt;stroke-linejoin:miter;stroke-opacity:1"
         id="path4883"
         inkscape:connector-curvature="0" />
      <path
         d="m 9022.951,10770.651 -24.5978,0 0,-52.666 q 0,-9.758 -3.4679,-14.597 -3.4678,-4.92 -11.0488,-4.92 -10.323,0 -14.9199,6.936 -4.597,6.855 -4.597,22.824 l 0,42.423 -24.5977,0 0,-90.169 18.791,0 3.3066,11.534 1.371,0 q 4.1131,-6.533 11.2908,-9.84 7.2584,-3.387 16.4523,-3.387 15.7264,0 23.8719,8.549 8.1455,8.468 8.1455,24.518 l 0,58.795 z"
         style="font-style:normal;font-variant:normal;font-weight:bold;font-stretch:normal;font-size:120px;line-height:125%;font-family:'Open Sans';-inkscape-font-specification:'Open Sans Bold';letter-spacing:0px;word-spacing:0px;fill:#ffffff;fill-opacity:1;stroke:none;stroke-width:1px;stroke-linecap:butt;stroke-linejoin:miter;stroke-opacity:1"
         id="path4885"
         inkscape:connector-curvature="0" />
      <path
         d="m 9073.0336,10770.651 -24.5978,0 0,-90.169 24.5978,0 0,90.169 z m -25.8075,-100.089 0,-2.177 q 13.8715,-16.131 18.9524,-24.276 l 27.5817,0 0,1.693 q -4.1937,4.194 -14.3554,12.501 -10.081,8.227 -15.8071,12.259 l -16.3716,0 z"
         style="font-style:normal;font-variant:normal;font-weight:bold;font-stretch:normal;font-size:120px;line-height:125%;font-family:'Open Sans';-inkscape-font-specification:'Open Sans Bold';letter-spacing:0px;word-spacing:0px;fill:#ffffff;fill-opacity:1;stroke:none;stroke-width:1px;stroke-linecap:butt;stroke-linejoin:miter;stroke-opacity:1"
         id="path4887"
         inkscape:connector-curvature="0" />
      <path
         d="m 9204.571,10743.875 q 0,13.872 -9.6778,21.13 -9.5971,7.259 -28.7914,7.259 -9.8391,0 -16.7749,-1.371 -6.9357,-1.291 -12.9844,-3.871 l 0,-20.325 q 6.8551,3.226 15.4039,5.404 8.6293,2.178 15.1619,2.178 13.3876,0 13.3876,-7.743 0,-2.903 -1.7743,-4.678 -1.7743,-1.855 -6.1293,-4.113 -4.355,-2.339 -11.6133,-5.404 -10.4037,-4.355 -15.3232,-8.065 -4.8389,-3.71 -7.0971,-8.468 -2.1775,-4.839 -2.1775,-11.856 0,-12.017 9.2746,-18.55 9.3552,-6.613 26.4526,-6.613 16.291,0 31.6948,7.097 l -7.4196,17.743 q -6.7745,-2.903 -12.6618,-4.758 -5.8873,-1.855 -12.0166,-1.855 -10.8875,0 -10.8875,5.888 0,3.306 3.4678,5.726 3.5486,2.419 15.4039,7.178 10.5649,4.274 15.4845,7.984 4.9195,3.71 7.2583,8.549 2.3388,4.839 2.3388,11.534 z m 2.5808,-99.766 0,2.177 q -6.7745,6.775 -12.5005,13.55 -5.6454,6.694 -8.1455,10.726 l -28.7915,0 q -2.3388,-3.79 -6.6938,-9.033 -4.355,-5.323 -13.9521,-15.243 l 0,-2.177 16.3716,0 q 11.8553,7.5 18.4684,14.194 6.7745,-7.016 18.8718,-14.194 l 16.3716,0 z"
         style="font-style:normal;font-variant:normal;font-weight:bold;font-stretch:normal;font-size:120px;line-height:125%;font-family:'Open Sans';-inkscape-font-specification:'Open Sans Bold';letter-spacing:0px;word-spacing:0px;fill:#ffffff;fill-opacity:1;stroke:none;stroke-width:1px;stroke-linecap:butt;stroke-linejoin:miter;stroke-opacity:1"
         id="path4889"
         inkscape:connector-curvature="0" />
      <path
         d="m 9247.5566,10721.615 10.7262,-13.711 25.243,-27.422 27.743,0 -35.8079,39.116 37.9855,51.053 -28.3883,0 -25.9687,-36.535 -10.565,8.468 0,28.067 -24.5978,0 0,-125.494 24.5978,0 0,55.972 -1.2904,20.486 0.3226,0 z"
         style="font-style:normal;font-variant:normal;font-weight:bold;font-stretch:normal;font-size:120px;line-height:125%;font-family:'Open Sans';-inkscape-font-specification:'Open Sans Bold';letter-spacing:0px;word-spacing:0px;fill:#ffffff;fill-opacity:1;stroke:none;stroke-width:1px;stroke-linecap:butt;stroke-linejoin:miter;stroke-opacity:1"
         id="path4891"
         inkscape:connector-curvature="0" />
      <path
         d="m 9346.1088,10725.405 q 0,13.389 4.3551,20.244 4.4356,6.855 14.3554,6.855 9.8391,0 14.1135,-6.774 4.3549,-6.856 4.3549,-20.325 0,-13.388 -4.3549,-20.082 -4.3551,-6.694 -14.2748,-6.694 -9.8392,0 -14.1941,6.694 -4.3551,6.614 -4.3551,20.082 z m 62.3413,0 q 0,22.018 -11.6134,34.439 -11.6134,12.42 -32.34,12.42 -12.9844,0 -22.9041,-5.646 -9.9198,-5.726 -15.2425,-16.372 -5.3228,-10.646 -5.3228,-24.841 0,-22.098 11.5327,-34.357 11.5327,-12.259 32.4206,-12.259 12.9844,0 22.9041,5.645 9.9197,5.646 15.2425,16.211 5.3229,10.566 5.3229,24.76 z"
         style="font-style:normal;font-variant:normal;font-weight:bold;font-stretch:normal;font-size:120px;line-height:125%;font-family:'Open Sans';-inkscape-font-specification:'Open Sans Bold';letter-spacing:0px;word-spacing:0px;fill:#ffffff;fill-opacity:1;stroke:none;stroke-width:1px;stroke-linecap:butt;stroke-linejoin:miter;stroke-opacity:1"
         id="path4893"
         inkscape:connector-curvature="0" />
      <path
         d="m 9453.3712,10770.651 -24.5978,0 0,-125.494 24.5978,0 0,125.494 z"
         style="font-style:normal;font-variant:normal;font-weight:bold;font-stretch:normal;font-size:120px;line-height:125%;font-family:'Open Sans';-inkscape-font-specification:'Open Sans Bold';letter-spacing:0px;word-spacing:0px;fill:#ffffff;fill-opacity:1;stroke:none;stroke-width:1px;stroke-linecap:butt;stroke-linejoin:miter;stroke-opacity:1"
         id="path4895"
         inkscape:connector-curvature="0" />
      <path
         d="m 9536.3583,10770.651 -4.7583,-12.259 -0.6451,0 q -6.2099,7.823 -12.8231,10.888 -6.5325,2.984 -17.0975,2.984 -12.9844,0 -20.4846,-7.42 -7.4197,-7.42 -7.4197,-21.131 0,-14.356 10.0004,-21.13 10.081,-6.856 30.3238,-7.582 l 15.6457,-0.484 0,-3.952 q 0,-13.71 -14.0328,-13.71 -10.8068,0 -25.4042,6.533 l -8.1455,-16.615 q 15.5651,-8.146 34.5176,-8.146 18.1457,0 27.8236,7.904 9.6777,7.904 9.6777,24.034 l 0,60.086 -17.178,0 z m -7.2584,-41.778 -9.5164,0.323 q -10.7263,0.323 -15.9684,3.871 -5.2422,3.549 -5.2422,10.808 0,10.404 11.936,10.404 8.5487,0 13.6295,-4.92 5.1615,-4.92 5.1615,-13.066 l 0,-7.42 z"
         style="font-style:normal;font-variant:normal;font-weight:bold;font-stretch:normal;font-size:120px;line-height:125%;font-family:'Open Sans';-inkscape-font-specification:'Open Sans Bold';letter-spacing:0px;word-spacing:0px;fill:#ffffff;fill-opacity:1;stroke:none;stroke-width:1px;stroke-linecap:butt;stroke-linejoin:miter;stroke-opacity:1"
         id="path4897"
         inkscape:connector-curvature="0" />
      <path
         d="m 9623.6198,10652.738 36.6951,0 q 25.0815,0 36.3724,7.178 11.3714,7.098 11.3714,22.663 0,10.566 -5.0002,17.34 -4.9197,6.775 -13.1457,8.146 l 0,0.807 q 11.2101,2.5 16.1296,9.355 5.0002,6.856 5.0002,18.228 0,16.13 -11.694,25.163 -11.6134,9.033 -31.6141,9.033 l -44.1147,0 0,-117.913 z m 25.001,46.698 14.5168,0 q 10.1616,0 14.6779,-3.146 4.597,-3.145 4.597,-10.404 0,-6.775 -5.0003,-9.678 -4.9195,-2.984 -15.6457,-2.984 l -13.1457,0 0,26.212 z m 0,19.84 0,30.728 16.291,0 q 10.3229,0 15.2425,-3.952 4.9196,-3.952 4.9196,-12.098 0,-14.678 -20.9686,-14.678 l -15.4845,0 z"
         style="font-style:normal;font-variant:normal;font-weight:bold;font-stretch:normal;font-size:120px;line-height:125%;font-family:'Open Sans';-inkscape-font-specification:'Open Sans Bold';letter-spacing:0px;word-spacing:0px;fill:#ffffff;fill-opacity:1;stroke:none;stroke-width:1px;stroke-linecap:butt;stroke-linejoin:miter;stroke-opacity:1"
         id="path4899"
         inkscape:connector-curvature="0" />
      <path
         d="m 9782.981,10678.789 q 5.0002,0 8.3067,0.726 l -1.8548,23.066 q -2.9841,-0.807 -7.2585,-0.807 -11.7746,0 -18.3877,6.049 -6.5325,6.049 -6.5325,16.937 l 0,45.891 -24.5978,0 0,-90.169 18.6297,0 3.6292,15.163 1.2097,0 q 4.1937,-7.581 11.2909,-12.178 7.1776,-4.678 15.5651,-4.678 z"
         style="font-style:normal;font-variant:normal;font-weight:bold;font-stretch:normal;font-size:120px;line-height:125%;font-family:'Open Sans';-inkscape-font-specification:'Open Sans Bold';letter-spacing:0px;word-spacing:0px;fill:#ffffff;fill-opacity:1;stroke:none;stroke-width:1px;stroke-linecap:butt;stroke-linejoin:miter;stroke-opacity:1"
         id="path4901"
         inkscape:connector-curvature="0" />
      <path
         d="m 9891.0497,10770.651 -24.5977,0 0,-52.666 q 0,-9.758 -3.4678,-14.597 -3.468,-4.92 -11.0489,-4.92 -10.323,0 -14.9199,6.936 -4.5971,6.855 -4.5971,22.824 l 0,42.423 -24.5977,0 0,-90.169 18.7911,0 3.3065,11.534 1.3711,0 q 4.1131,-6.533 11.2907,-9.84 7.2584,-3.387 16.4524,-3.387 15.7264,0 23.8718,8.549 8.1455,8.468 8.1455,24.518 l 0,58.795 z"
         style="font-style:normal;font-variant:normal;font-weight:bold;font-stretch:normal;font-size:120px;line-height:125%;font-family:'Open Sans';-inkscape-font-specification:'Open Sans Bold';letter-spacing:0px;word-spacing:0px;fill:#ffffff;fill-opacity:1;stroke:none;stroke-width:1px;stroke-linecap:butt;stroke-linejoin:miter;stroke-opacity:1"
         id="path4903"
         inkscape:connector-curvature="0" />
      <path
         d="m 9936.1322,10725.405 q 0,13.389 4.355,20.244 4.4356,6.855 14.3553,6.855 9.8392,0 14.1136,-6.774 4.3549,-6.856 4.3549,-20.325 0,-13.388 -4.3549,-20.082 -4.3551,-6.694 -14.2748,-6.694 -9.8392,0 -14.1941,6.694 -4.355,6.614 -4.355,20.082 z m 62.3412,0 q 0,22.018 -11.6134,34.439 -11.6134,12.42 -32.34,12.42 -12.9844,0 -22.9042,-5.646 -9.9197,-5.726 -15.2425,-16.372 -5.3228,-10.646 -5.3228,-24.841 0,-22.098 11.5327,-34.357 11.5328,-12.259 32.4206,-12.259 12.9844,0 22.9043,5.645 9.9197,5.646 15.2425,16.211 5.3228,10.566 5.3228,24.76 z"
         style="font-style:normal;font-variant:normal;font-weight:bold;font-stretch:normal;font-size:120px;line-height:125%;font-family:'Open Sans';-inkscape-font-specification:'Open Sans Bold';letter-spacing:0px;word-spacing:0px;fill:#ffffff;fill-opacity:1;stroke:none;stroke-width:1px;stroke-linecap:butt;stroke-linejoin:miter;stroke-opacity:1"
         id="path4905"
         inkscape:connector-curvature="0" />
      <path
         d="m 10042.911,10753.311 q -4.194,16.291 -14.195,38.632 l -17.742,0 q 5.242,-21.453 8.145,-40.487 l 22.582,0 1.21,1.855 z"
         style="font-style:normal;font-variant:normal;font-weight:bold;font-stretch:normal;font-size:120px;line-height:125%;font-family:'Open Sans';-inkscape-font-specification:'Open Sans Bold';letter-spacing:0px;word-spacing:0px;fill:#ffffff;fill-opacity:1;stroke:none;stroke-width:1px;stroke-linecap:butt;stroke-linejoin:miter;stroke-opacity:1"
         id="path4907"
         inkscape:connector-curvature="0" />
      <path
         d="m 8485.6717,10977.119 -24.9204,0 0,-50.891 -46.6953,0 0,50.891 -25.001,0 0,-117.913 25.001,0 0,46.214 46.6953,0 0,-46.214 24.9204,0 0,117.913 z"
         style="font-style:normal;font-variant:normal;font-weight:bold;font-stretch:normal;font-size:120px;line-height:125%;font-family:'Open Sans';-inkscape-font-specification:'Open Sans Bold';letter-spacing:0px;word-spacing:0px;fill:#ffffff;fill-opacity:1;stroke:none;stroke-width:1px;stroke-linecap:butt;stroke-linejoin:miter;stroke-opacity:1"
         id="path4909"
         inkscape:connector-curvature="0" />
      <path
         d="m 8563.9006,10885.257 q 5.0002,0 8.3068,0.726 l -1.8549,23.066 q -2.984,-0.807 -7.2584,-0.807 -11.7747,0 -18.3878,6.049 -6.5325,6.049 -6.5325,16.937 l 0,45.891 -24.5978,0 0,-90.169 18.6298,0 3.6292,15.163 1.2097,0 q 4.1937,-7.581 11.2907,-12.179 7.1778,-4.677 15.5652,-4.677 z"
         style="font-style:normal;font-variant:normal;font-weight:bold;font-stretch:normal;font-size:120px;line-height:125%;font-family:'Open Sans';-inkscape-font-specification:'Open Sans Bold';letter-spacing:0px;word-spacing:0px;fill:#ffffff;fill-opacity:1;stroke:none;stroke-width:1px;stroke-linecap:butt;stroke-linejoin:miter;stroke-opacity:1"
         id="path4911"
         inkscape:connector-curvature="0" />
      <path
         d="m 8608.3378,10931.873 q 0,13.388 4.355,20.244 4.4357,6.855 14.3554,6.855 9.8391,0 14.1135,-6.775 4.355,-6.855 4.355,-20.324 0,-13.388 -4.355,-20.082 -4.355,-6.694 -14.2748,-6.694 -9.8391,0 -14.1941,6.694 -4.355,6.613 -4.355,20.082 z m 62.3412,0 q 0,22.018 -11.6134,34.438 -11.6133,12.421 -32.34,12.421 -12.9843,0 -22.9041,-5.646 -9.9197,-5.726 -15.2425,-16.372 -5.3228,-10.646 -5.3228,-24.841 0,-22.098 11.5327,-34.357 11.5327,-12.259 32.4206,-12.259 12.9844,0 22.9042,5.645 9.9197,5.646 15.2425,16.211 5.3228,10.566 5.3228,24.76 z"
         style="font-style:normal;font-variant:normal;font-weight:bold;font-stretch:normal;font-size:120px;line-height:125%;font-family:'Open Sans';-inkscape-font-specification:'Open Sans Bold';letter-spacing:0px;word-spacing:0px;fill:#ffffff;fill-opacity:1;stroke:none;stroke-width:1px;stroke-linecap:butt;stroke-linejoin:miter;stroke-opacity:1"
         id="path4913"
         inkscape:connector-curvature="0" />
      <path
         d="m 8753.7468,10977.119 -71.2125,0 0,-14.518 41.7758,-56.859 -39.2757,0 0,-18.792 67.2607,0 0,15.969 -40.6467,55.408 42.0984,0 0,18.792 z"
         style="font-style:normal;font-variant:normal;font-weight:bold;font-stretch:normal;font-size:120px;line-height:125%;font-family:'Open Sans';-inkscape-font-specification:'Open Sans Bold';letter-spacing:0px;word-spacing:0px;fill:#ffffff;fill-opacity:1;stroke:none;stroke-width:1px;stroke-linecap:butt;stroke-linejoin:miter;stroke-opacity:1"
         id="path4915"
         inkscape:connector-curvature="0" />
      <path
         d="m 8854.8798,10977.119 -24.5977,0 0,-52.666 q 0,-9.759 -3.4679,-14.598 -3.4679,-4.919 -11.0488,-4.919 -10.323,0 -14.92,6.936 -4.5969,6.855 -4.5969,22.824 l 0,42.423 -24.5978,0 0,-90.169 18.7911,0 3.3066,11.533 1.371,0 q 4.113,-6.532 11.2907,-9.839 7.2584,-3.387 16.4523,-3.387 15.7264,0 23.8719,8.549 8.1455,8.468 8.1455,24.518 l 0,58.795 z"
         style="font-style:normal;font-variant:normal;font-weight:bold;font-stretch:normal;font-size:120px;line-height:125%;font-family:'Open Sans';-inkscape-font-specification:'Open Sans Bold';letter-spacing:0px;word-spacing:0px;fill:#ffffff;fill-opacity:1;stroke:none;stroke-width:1px;stroke-linecap:butt;stroke-linejoin:miter;stroke-opacity:1"
         id="path4917"
         inkscape:connector-curvature="0" />
      <path
         d="m 8899.9622,10931.873 q 0,13.388 4.355,20.244 4.4357,6.855 14.3554,6.855 9.8391,0 14.1135,-6.775 4.355,-6.855 4.355,-20.324 0,-13.388 -4.355,-20.082 -4.355,-6.694 -14.2747,-6.694 -9.8391,0 -14.1942,6.694 -4.355,6.613 -4.355,20.082 z m 62.3412,0 q 0,22.018 -11.6134,34.438 -11.6133,12.421 -32.3399,12.421 -12.9844,0 -22.9042,-5.646 -9.9197,-5.726 -15.2425,-16.372 -5.3228,-10.646 -5.3228,-24.841 0,-22.098 11.5327,-34.357 11.5327,-12.259 32.4206,-12.259 12.9844,0 22.9042,5.645 9.9197,5.646 15.2425,16.211 5.3228,10.566 5.3228,24.76 z"
         style="font-style:normal;font-variant:normal;font-weight:bold;font-stretch:normal;font-size:120px;line-height:125%;font-family:'Open Sans';-inkscape-font-specification:'Open Sans Bold';letter-spacing:0px;word-spacing:0px;fill:#ffffff;fill-opacity:1;stroke:none;stroke-width:1px;stroke-linecap:butt;stroke-linejoin:miter;stroke-opacity:1"
         id="path4919"
         inkscape:connector-curvature="0" />
      <path
         d="m 9004.0792,10977.119 -34.3561,-90.169 25.7268,0 17.42,51.375 q 2.9034,9.759 3.6292,18.47 l 0.4839,0 q 0.4032,-7.743 3.6291,-18.47 l 17.3394,-51.375 25.7269,0 -34.3562,90.169 -25.243,0 z"
         style="font-style:normal;font-variant:normal;font-weight:bold;font-stretch:normal;font-size:120px;line-height:125%;font-family:'Open Sans';-inkscape-font-specification:'Open Sans Bold';letter-spacing:0px;word-spacing:0px;fill:#ffffff;fill-opacity:1;stroke:none;stroke-width:1px;stroke-linecap:butt;stroke-linejoin:miter;stroke-opacity:1"
         id="path4921"
         inkscape:connector-curvature="0" />
      <path
         d="m 9133.7618,10977.119 -4.7583,-12.259 -0.6452,0 q -6.2099,7.823 -12.823,10.888 -6.5326,2.984 -17.0975,2.984 -12.9844,0 -20.4847,-7.42 -7.4196,-7.42 -7.4196,-21.131 0,-14.356 10.0004,-21.131 10.081,-6.855 30.3237,-7.581 l 15.6458,-0.484 0,-3.952 q 0,-13.71 -14.0328,-13.71 -10.8069,0 -25.4042,6.532 l -8.1455,-16.614 q 15.5651,-8.146 34.5175,-8.146 18.1459,0 27.8237,7.904 9.6778,7.904 9.6778,24.034 l 0,60.086 -17.1781,0 z m -7.2584,-41.778 -9.5165,0.323 q -10.7262,0.322 -15.9684,3.871 -5.2421,3.549 -5.2421,10.807 0,10.404 11.936,10.404 8.5487,0 13.6295,-4.919 5.1615,-4.92 5.1615,-13.066 l 0,-7.42 z m -27.3398,-58.311 0,-2.177 q 13.8716,-16.131 18.9524,-24.276 l 27.5817,0 0,1.693 q -4.1937,4.194 -14.3554,12.501 -10.081,8.227 -15.807,12.259 l -16.3717,0 z"
         style="font-style:normal;font-variant:normal;font-weight:bold;font-stretch:normal;font-size:120px;line-height:125%;font-family:'Open Sans';-inkscape-font-specification:'Open Sans Bold';letter-spacing:0px;word-spacing:0px;fill:#ffffff;fill-opacity:1;stroke:none;stroke-width:1px;stroke-linecap:butt;stroke-linejoin:miter;stroke-opacity:1"
         id="path4923"
         inkscape:connector-curvature="0" />
      <path
         d="m 9274.4125,10977.119 -24.9204,0 0,-68.231 0.242,-11.211 0.4033,-12.259 q -6.21,6.21 -8.6294,8.146 l -13.549,10.888 -12.0166,-15.001 37.9855,-30.245 20.4846,0 0,117.913 z"
         style="font-style:normal;font-variant:normal;font-weight:bold;font-stretch:normal;font-size:120px;line-height:125%;font-family:'Open Sans';-inkscape-font-specification:'Open Sans Bold';letter-spacing:0px;word-spacing:0px;fill:#ffffff;fill-opacity:1;stroke:none;stroke-width:1px;stroke-linecap:butt;stroke-linejoin:miter;stroke-opacity:1"
         id="path4925"
         inkscape:connector-curvature="0" />
    </g>
  </g>
</svg>
